G04*
G04 #@! TF.GenerationSoftware,Altium Limited,Altium Designer,19.1.8 (144)*
G04*
G04 Layer_Color=2752767*
%FSLAX25Y25*%
%MOIN*%
G70*
G01*
G75*
%ADD101C,0.00200*%
%ADD102C,0.00267*%
D101*
X801200Y436200D02*
Y437800D01*
X802800D01*
Y436200D01*
X801200D01*
X973200D02*
Y437800D01*
X974800D01*
Y436200D01*
X973200D01*
Y203700D02*
Y205300D01*
X974800D01*
Y203700D01*
X973200D01*
X940000Y251043D02*
X939200Y252642D01*
X940800D01*
X940000Y251043D01*
X932126D02*
X931326Y252642D01*
X932926D01*
X932126Y251043D01*
X940000Y241200D02*
X939200Y242800D01*
X940800D01*
X940000Y241200D01*
X932126D02*
X931326Y242800D01*
X932926D01*
X932126Y241200D01*
X950669Y222421D02*
X951069Y222820D01*
X951469D01*
X951069Y223220D01*
X951469Y223621D01*
X951069D01*
X950669Y224021D01*
X950269Y223621D01*
X949869D01*
X950269Y223220D01*
X949869Y222820D01*
X950269D01*
X950669Y222421D01*
Y269822D02*
X951069Y270222D01*
X951469D01*
X951069Y270622D01*
X951469Y271022D01*
X951069D01*
X950669Y271422D01*
X950269Y271022D01*
X949869D01*
X950269Y270622D01*
X949869Y270222D01*
X950269D01*
X950669Y269822D01*
X793200Y359700D02*
X793600Y360500D01*
X793200Y361300D01*
X794000Y360900D01*
X794800Y361300D01*
X794400Y360500D01*
X794800Y359700D01*
X794000Y360100D01*
X793200Y359700D01*
Y369700D02*
X793600Y370500D01*
X793200Y371300D01*
X794000Y370900D01*
X794800Y371300D01*
X794400Y370500D01*
X794800Y369700D01*
X794000Y370100D01*
X793200Y369700D01*
Y379700D02*
X793600Y380500D01*
X793200Y381300D01*
X794000Y380900D01*
X794800Y381300D01*
X794400Y380500D01*
X794800Y379700D01*
X794000Y380100D01*
X793200Y379700D01*
Y389700D02*
X793600Y390500D01*
X793200Y391300D01*
X794000Y390900D01*
X794800Y391300D01*
X794400Y390500D01*
X794800Y389700D01*
X794000Y390100D01*
X793200Y389700D01*
X929300Y440150D02*
X928500Y441750D01*
X930100D01*
X929300Y440150D01*
X919300D02*
X918500Y441750D01*
X920100D01*
X919300Y440150D01*
X909300D02*
X908500Y441750D01*
X910100D01*
X909300Y440150D01*
X869300D02*
X868500Y441750D01*
X870100D01*
X869300Y440150D01*
X879300D02*
X878500Y441750D01*
X880100D01*
X879300Y440150D01*
X889300D02*
X888500Y441750D01*
X890100D01*
X889300Y440150D01*
X899300D02*
X898500Y441750D01*
X900100D01*
X899300Y440150D01*
X944700Y344950D02*
Y344550D01*
X945500D01*
Y344950D01*
X945900D01*
Y345750D01*
X945500D01*
Y346150D01*
X944700D01*
Y345750D01*
X944300D01*
Y344950D01*
X944700D01*
X944800Y438550D02*
Y438150D01*
X945600D01*
Y438550D01*
X946000D01*
Y439350D01*
X945600D01*
Y439750D01*
X944800D01*
Y439350D01*
X944400D01*
Y438550D01*
X944800D01*
X853000D02*
Y438150D01*
X853800D01*
Y438550D01*
X854200D01*
Y439350D01*
X853800D01*
Y439750D01*
X853000D01*
Y439350D01*
X852600D01*
Y438550D01*
X853000D01*
Y344850D02*
Y344450D01*
X853800D01*
Y344850D01*
X854200D01*
Y345650D01*
X853800D01*
Y346050D01*
X853000D01*
Y345650D01*
X852600D01*
Y344850D01*
X853000D01*
X801200Y203700D02*
Y205300D01*
X802800D01*
Y203700D01*
X801200D01*
X977700Y289734D02*
X978100Y290534D01*
X977700Y291334D01*
X978500Y290934D01*
X979300Y291334D01*
X978900Y290534D01*
X979300Y289734D01*
X978500Y290134D01*
X977700Y289734D01*
Y331200D02*
X978100Y332000D01*
X977700Y332800D01*
X978500Y332400D01*
X979300Y332800D01*
X978900Y332000D01*
X979300Y331200D01*
X978500Y331600D01*
X977700Y331200D01*
Y317378D02*
X978100Y318178D01*
X977700Y318978D01*
X978500Y318578D01*
X979300Y318978D01*
X978900Y318178D01*
X979300Y317378D01*
X978500Y317778D01*
X977700Y317378D01*
Y303556D02*
X978100Y304356D01*
X977700Y305156D01*
X978500Y304756D01*
X979300Y305156D01*
X978900Y304356D01*
X979300Y303556D01*
X978500Y303956D01*
X977700Y303556D01*
X910700Y420700D02*
X911100D01*
X911500Y421100D01*
X911900Y420700D01*
X912300D01*
Y421100D01*
X911900Y421500D01*
X912300Y421900D01*
Y422300D01*
X911900D01*
X911500Y421900D01*
X911100Y422300D01*
X910700D01*
Y421900D01*
X911100Y421500D01*
X910700Y421100D01*
Y420700D01*
X908200Y418700D02*
X908600D01*
X909000Y419100D01*
X909400Y418700D01*
X909800D01*
Y419100D01*
X909400Y419500D01*
X909800Y419900D01*
Y420300D01*
X909400D01*
X909000Y419900D01*
X908600Y420300D01*
X908200D01*
Y419900D01*
X908600Y419500D01*
X908200Y419100D01*
Y418700D01*
X807405Y301825D02*
X807805D01*
X808205Y302225D01*
X808605Y301825D01*
X809005D01*
Y302225D01*
X808605Y302625D01*
X809005Y303025D01*
Y303425D01*
X808605D01*
X808205Y303025D01*
X807805Y303425D01*
X807405D01*
Y303025D01*
X807805Y302625D01*
X807405Y302225D01*
Y301825D01*
Y290950D02*
X807805D01*
X808205Y291350D01*
X808605Y290950D01*
X809005D01*
Y291350D01*
X808605Y291750D01*
X809005Y292150D01*
Y292550D01*
X808605D01*
X808205Y292150D01*
X807805Y292550D01*
X807405D01*
Y292150D01*
X807805Y291750D01*
X807405Y291350D01*
Y290950D01*
Y280075D02*
X807805D01*
X808205Y280475D01*
X808605Y280075D01*
X809005D01*
Y280475D01*
X808605Y280875D01*
X809005Y281275D01*
Y281675D01*
X808605D01*
X808205Y281275D01*
X807805Y281675D01*
X807405D01*
Y281275D01*
X807805Y280875D01*
X807405Y280475D01*
Y280075D01*
Y269200D02*
X807805D01*
X808205Y269600D01*
X808605Y269200D01*
X809005D01*
Y269600D01*
X808605Y270000D01*
X809005Y270400D01*
Y270800D01*
X808605D01*
X808205Y270400D01*
X807805Y270800D01*
X807405D01*
Y270400D01*
X807805Y270000D01*
X807405Y269600D01*
Y269200D01*
Y312700D02*
X807805D01*
X808205Y313100D01*
X808605Y312700D01*
X809005D01*
Y313100D01*
X808605Y313500D01*
X809005Y313900D01*
Y314300D01*
X808605D01*
X808205Y313900D01*
X807805Y314300D01*
X807405D01*
Y313900D01*
X807805Y313500D01*
X807405Y313100D01*
Y312700D01*
X800405Y302325D02*
X800805D01*
X801205Y302725D01*
X801605Y302325D01*
X802005D01*
Y302725D01*
X801605Y303125D01*
X802005Y303525D01*
Y303925D01*
X801605D01*
X801205Y303525D01*
X800805Y303925D01*
X800405D01*
Y303525D01*
X800805Y303125D01*
X800405Y302725D01*
Y302325D01*
Y291450D02*
X800805D01*
X801205Y291850D01*
X801605Y291450D01*
X802005D01*
Y291850D01*
X801605Y292250D01*
X802005Y292650D01*
Y293050D01*
X801605D01*
X801205Y292650D01*
X800805Y293050D01*
X800405D01*
Y292650D01*
X800805Y292250D01*
X800405Y291850D01*
Y291450D01*
Y280575D02*
X800805D01*
X801205Y280975D01*
X801605Y280575D01*
X802005D01*
Y280975D01*
X801605Y281375D01*
X802005Y281775D01*
Y282175D01*
X801605D01*
X801205Y281775D01*
X800805Y282175D01*
X800405D01*
Y281775D01*
X800805Y281375D01*
X800405Y280975D01*
Y280575D01*
Y269700D02*
X800805D01*
X801205Y270100D01*
X801605Y269700D01*
X802005D01*
Y270100D01*
X801605Y270500D01*
X802005Y270900D01*
Y271300D01*
X801605D01*
X801205Y270900D01*
X800805Y271300D01*
X800405D01*
Y270900D01*
X800805Y270500D01*
X800405Y270100D01*
Y269700D01*
Y313200D02*
X800805D01*
X801205Y313600D01*
X801605Y313200D01*
X802005D01*
Y313600D01*
X801605Y314000D01*
X802005Y314400D01*
Y314800D01*
X801605D01*
X801205Y314400D01*
X800805Y314800D01*
X800405D01*
Y314400D01*
X800805Y314000D01*
X800405Y313600D01*
Y313200D01*
X792905Y302325D02*
X793305D01*
X793705Y302725D01*
X794105Y302325D01*
X794505D01*
Y302725D01*
X794105Y303125D01*
X794505Y303525D01*
Y303925D01*
X794105D01*
X793705Y303525D01*
X793305Y303925D01*
X792905D01*
Y303525D01*
X793305Y303125D01*
X792905Y302725D01*
Y302325D01*
Y291450D02*
X793305D01*
X793705Y291850D01*
X794105Y291450D01*
X794505D01*
Y291850D01*
X794105Y292250D01*
X794505Y292650D01*
Y293050D01*
X794105D01*
X793705Y292650D01*
X793305Y293050D01*
X792905D01*
Y292650D01*
X793305Y292250D01*
X792905Y291850D01*
Y291450D01*
Y280575D02*
X793305D01*
X793705Y280975D01*
X794105Y280575D01*
X794505D01*
Y280975D01*
X794105Y281375D01*
X794505Y281775D01*
Y282175D01*
X794105D01*
X793705Y281775D01*
X793305Y282175D01*
X792905D01*
Y281775D01*
X793305Y281375D01*
X792905Y280975D01*
Y280575D01*
Y269700D02*
X793305D01*
X793705Y270100D01*
X794105Y269700D01*
X794505D01*
Y270100D01*
X794105Y270500D01*
X794505Y270900D01*
Y271300D01*
X794105D01*
X793705Y270900D01*
X793305Y271300D01*
X792905D01*
Y270900D01*
X793305Y270500D01*
X792905Y270100D01*
Y269700D01*
Y313200D02*
X793305D01*
X793705Y313600D01*
X794105Y313200D01*
X794505D01*
Y313600D01*
X794105Y314000D01*
X794505Y314400D01*
Y314800D01*
X794105D01*
X793705Y314400D01*
X793305Y314800D01*
X792905D01*
Y314400D01*
X793305Y314000D01*
X792905Y313600D01*
Y313200D01*
X784700D02*
X785100D01*
X785500Y313600D01*
X785900Y313200D01*
X786300D01*
Y313600D01*
X785900Y314000D01*
X786300Y314400D01*
Y314800D01*
X785900D01*
X785500Y314400D01*
X785100Y314800D01*
X784700D01*
Y314400D01*
X785100Y314000D01*
X784700Y313600D01*
Y313200D01*
Y269700D02*
X785100D01*
X785500Y270100D01*
X785900Y269700D01*
X786300D01*
Y270100D01*
X785900Y270500D01*
X786300Y270900D01*
Y271300D01*
X785900D01*
X785500Y270900D01*
X785100Y271300D01*
X784700D01*
Y270900D01*
X785100Y270500D01*
X784700Y270100D01*
Y269700D01*
Y280575D02*
X785100D01*
X785500Y280975D01*
X785900Y280575D01*
X786300D01*
Y280975D01*
X785900Y281375D01*
X786300Y281775D01*
Y282175D01*
X785900D01*
X785500Y281775D01*
X785100Y282175D01*
X784700D01*
Y281775D01*
X785100Y281375D01*
X784700Y280975D01*
Y280575D01*
Y291450D02*
X785100D01*
X785500Y291850D01*
X785900Y291450D01*
X786300D01*
Y291850D01*
X785900Y292250D01*
X786300Y292650D01*
Y293050D01*
X785900D01*
X785500Y292650D01*
X785100Y293050D01*
X784700D01*
Y292650D01*
X785100Y292250D01*
X784700Y291850D01*
Y291450D01*
Y302325D02*
X785100D01*
X785500Y302725D01*
X785900Y302325D01*
X786300D01*
Y302725D01*
X785900Y303125D01*
X786300Y303525D01*
Y303925D01*
X785900D01*
X785500Y303525D01*
X785100Y303925D01*
X784700D01*
Y303525D01*
X785100Y303125D01*
X784700Y302725D01*
Y302325D01*
X934700Y264200D02*
X935100D01*
X935500Y264600D01*
X935900Y264200D01*
X936300D01*
Y264600D01*
X935900Y265000D01*
X936300Y265400D01*
Y265800D01*
X935900D01*
X935500Y265400D01*
X935100Y265800D01*
X934700D01*
Y265400D01*
X935100Y265000D01*
X934700Y264600D01*
Y264200D01*
X923700Y267200D02*
X924100D01*
X924500Y267600D01*
X924900Y267200D01*
X925300D01*
Y267600D01*
X924900Y268000D01*
X925300Y268400D01*
Y268800D01*
X924900D01*
X924500Y268400D01*
X924100Y268800D01*
X923700D01*
Y268400D01*
X924100Y268000D01*
X923700Y267600D01*
Y267200D01*
X882200Y368200D02*
X882600D01*
X883000Y368600D01*
X883400Y368200D01*
X883800D01*
Y368600D01*
X883400Y369000D01*
X883800Y369400D01*
Y369800D01*
X883400D01*
X883000Y369400D01*
X882600Y369800D01*
X882200D01*
Y369400D01*
X882600Y369000D01*
X882200Y368600D01*
Y368200D01*
X890700Y353200D02*
X891100D01*
X891500Y353600D01*
X891900Y353200D01*
X892300D01*
Y353600D01*
X891900Y354000D01*
X892300Y354400D01*
Y354800D01*
X891900D01*
X891500Y354400D01*
X891100Y354800D01*
X890700D01*
Y354400D01*
X891100Y354000D01*
X890700Y353600D01*
Y353200D01*
X884700D02*
X885100D01*
X885500Y353600D01*
X885900Y353200D01*
X886300D01*
Y353600D01*
X885900Y354000D01*
X886300Y354400D01*
Y354800D01*
X885900D01*
X885500Y354400D01*
X885100Y354800D01*
X884700D01*
Y354400D01*
X885100Y354000D01*
X884700Y353600D01*
Y353200D01*
X894450Y405058D02*
X894850D01*
X895250Y405458D01*
X895650Y405058D01*
X896050D01*
Y405458D01*
X895650Y405858D01*
X896050Y406258D01*
Y406658D01*
X895650D01*
X895250Y406258D01*
X894850Y406658D01*
X894450D01*
Y406258D01*
X894850Y405858D01*
X894450Y405458D01*
Y405058D01*
X817700Y361200D02*
X818100D01*
X818500Y361600D01*
X818900Y361200D01*
X819300D01*
Y361600D01*
X818900Y362000D01*
X819300Y362400D01*
Y362800D01*
X818900D01*
X818500Y362400D01*
X818100Y362800D01*
X817700D01*
Y362400D01*
X818100Y362000D01*
X817700Y361600D01*
Y361200D01*
X904700Y248200D02*
X905100D01*
X905500Y248600D01*
X905900Y248200D01*
X906300D01*
Y248600D01*
X905900Y249000D01*
X906300Y249400D01*
Y249800D01*
X905900D01*
X905500Y249400D01*
X905100Y249800D01*
X904700D01*
Y249400D01*
X905100Y249000D01*
X904700Y248600D01*
Y248200D01*
X898700Y303200D02*
X899100D01*
X899500Y303600D01*
X899900Y303200D01*
X900300D01*
Y303600D01*
X899900Y304000D01*
X900300Y304400D01*
Y304800D01*
X899900D01*
X899500Y304400D01*
X899100Y304800D01*
X898700D01*
Y304400D01*
X899100Y304000D01*
X898700Y303600D01*
Y303200D01*
X840700Y349200D02*
X841100D01*
X841500Y349600D01*
X841900Y349200D01*
X842300D01*
Y349600D01*
X841900Y350000D01*
X842300Y350400D01*
Y350800D01*
X841900D01*
X841500Y350400D01*
X841100Y350800D01*
X840700D01*
Y350400D01*
X841100Y350000D01*
X840700Y349600D01*
Y349200D01*
X875200Y331200D02*
X875600D01*
X876000Y331600D01*
X876400Y331200D01*
X876800D01*
Y331600D01*
X876400Y332000D01*
X876800Y332400D01*
Y332800D01*
X876400D01*
X876000Y332400D01*
X875600Y332800D01*
X875200D01*
Y332400D01*
X875600Y332000D01*
X875200Y331600D01*
Y331200D01*
X882700D02*
X883100D01*
X883500Y331600D01*
X883900Y331200D01*
X884300D01*
Y331600D01*
X883900Y332000D01*
X884300Y332400D01*
Y332800D01*
X883900D01*
X883500Y332400D01*
X883100Y332800D01*
X882700D01*
Y332400D01*
X883100Y332000D01*
X882700Y331600D01*
Y331200D01*
X867700Y335200D02*
X868100D01*
X868500Y335600D01*
X868900Y335200D01*
X869300D01*
Y335600D01*
X868900Y336000D01*
X869300Y336400D01*
Y336800D01*
X868900D01*
X868500Y336400D01*
X868100Y336800D01*
X867700D01*
Y336400D01*
X868100Y336000D01*
X867700Y335600D01*
Y335200D01*
X875200D02*
X875600D01*
X876000Y335600D01*
X876400Y335200D01*
X876800D01*
Y335600D01*
X876400Y336000D01*
X876800Y336400D01*
Y336800D01*
X876400D01*
X876000Y336400D01*
X875600Y336800D01*
X875200D01*
Y336400D01*
X875600Y336000D01*
X875200Y335600D01*
Y335200D01*
X882700D02*
X883100D01*
X883500Y335600D01*
X883900Y335200D01*
X884300D01*
Y335600D01*
X883900Y336000D01*
X884300Y336400D01*
Y336800D01*
X883900D01*
X883500Y336400D01*
X883100Y336800D01*
X882700D01*
Y336400D01*
X883100Y336000D01*
X882700Y335600D01*
Y335200D01*
Y339700D02*
X883100D01*
X883500Y340100D01*
X883900Y339700D01*
X884300D01*
Y340100D01*
X883900Y340500D01*
X884300Y340900D01*
Y341300D01*
X883900D01*
X883500Y340900D01*
X883100Y341300D01*
X882700D01*
Y340900D01*
X883100Y340500D01*
X882700Y340100D01*
Y339700D01*
X875200D02*
X875600D01*
X876000Y340100D01*
X876400Y339700D01*
X876800D01*
Y340100D01*
X876400Y340500D01*
X876800Y340900D01*
Y341300D01*
X876400D01*
X876000Y340900D01*
X875600Y341300D01*
X875200D01*
Y340900D01*
X875600Y340500D01*
X875200Y340100D01*
Y339700D01*
X867700D02*
X868100D01*
X868500Y340100D01*
X868900Y339700D01*
X869300D01*
Y340100D01*
X868900Y340500D01*
X869300Y340900D01*
Y341300D01*
X868900D01*
X868500Y340900D01*
X868100Y341300D01*
X867700D01*
Y340900D01*
X868100Y340500D01*
X867700Y340100D01*
Y339700D01*
X874200Y425200D02*
X874600D01*
X875000Y425600D01*
X875400Y425200D01*
X875800D01*
Y425600D01*
X875400Y426000D01*
X875800Y426400D01*
Y426800D01*
X875400D01*
X875000Y426400D01*
X874600Y426800D01*
X874200D01*
Y426400D01*
X874600Y426000D01*
X874200Y425600D01*
Y425200D01*
X886200Y418168D02*
X886600D01*
X887000Y418569D01*
X887400Y418168D01*
X887800D01*
Y418569D01*
X887400Y418968D01*
X887800Y419369D01*
Y419768D01*
X887400D01*
X887000Y419369D01*
X886600Y419768D01*
X886200D01*
Y419369D01*
X886600Y418968D01*
X886200Y418569D01*
Y418168D01*
X902200Y433200D02*
X902600D01*
X903000Y433600D01*
X903400Y433200D01*
X903800D01*
Y433600D01*
X903400Y434000D01*
X903800Y434400D01*
Y434800D01*
X903400D01*
X903000Y434400D01*
X902600Y434800D01*
X902200D01*
Y434400D01*
X902600Y434000D01*
X902200Y433600D01*
Y433200D01*
X927200Y363700D02*
X927600D01*
X928000Y364100D01*
X928400Y363700D01*
X928800D01*
Y364100D01*
X928400Y364500D01*
X928800Y364900D01*
Y365300D01*
X928400D01*
X928000Y364900D01*
X927600Y365300D01*
X927200D01*
Y364900D01*
X927600Y364500D01*
X927200Y364100D01*
Y363700D01*
X886200Y424200D02*
X886600D01*
X887000Y424600D01*
X887400Y424200D01*
X887800D01*
Y424600D01*
X887400Y425000D01*
X887800Y425400D01*
Y425800D01*
X887400D01*
X887000Y425400D01*
X886600Y425800D01*
X886200D01*
Y425400D01*
X886600Y425000D01*
X886200Y424600D01*
Y424200D01*
X957450Y376200D02*
X957850D01*
X958250Y376600D01*
X958650Y376200D01*
X959050D01*
Y376600D01*
X958650Y377000D01*
X959050Y377400D01*
Y377800D01*
X958650D01*
X958250Y377400D01*
X957850Y377800D01*
X957450D01*
Y377400D01*
X957850Y377000D01*
X957450Y376600D01*
Y376200D01*
X929700Y329700D02*
X930100D01*
X930500Y330100D01*
X930900Y329700D01*
X931300D01*
Y330100D01*
X930900Y330500D01*
X931300Y330900D01*
Y331300D01*
X930900D01*
X930500Y330900D01*
X930100Y331300D01*
X929700D01*
Y330900D01*
X930100Y330500D01*
X929700Y330100D01*
Y329700D01*
X926200D02*
X926600D01*
X927000Y330100D01*
X927400Y329700D01*
X927800D01*
Y330100D01*
X927400Y330500D01*
X927800Y330900D01*
Y331300D01*
X927400D01*
X927000Y330900D01*
X926600Y331300D01*
X926200D01*
Y330900D01*
X926600Y330500D01*
X926200Y330100D01*
Y329700D01*
X922700D02*
X923100D01*
X923500Y330100D01*
X923900Y329700D01*
X924300D01*
Y330100D01*
X923900Y330500D01*
X924300Y330900D01*
Y331300D01*
X923900D01*
X923500Y330900D01*
X923100Y331300D01*
X922700D01*
Y330900D01*
X923100Y330500D01*
X922700Y330100D01*
Y329700D01*
X929700Y334700D02*
X930100D01*
X930500Y335100D01*
X930900Y334700D01*
X931300D01*
Y335100D01*
X930900Y335500D01*
X931300Y335900D01*
Y336300D01*
X930900D01*
X930500Y335900D01*
X930100Y336300D01*
X929700D01*
Y335900D01*
X930100Y335500D01*
X929700Y335100D01*
Y334700D01*
X926200D02*
X926600D01*
X927000Y335100D01*
X927400Y334700D01*
X927800D01*
Y335100D01*
X927400Y335500D01*
X927800Y335900D01*
Y336300D01*
X927400D01*
X927000Y335900D01*
X926600Y336300D01*
X926200D01*
Y335900D01*
X926600Y335500D01*
X926200Y335100D01*
Y334700D01*
X922700D02*
X923100D01*
X923500Y335100D01*
X923900Y334700D01*
X924300D01*
Y335100D01*
X923900Y335500D01*
X924300Y335900D01*
Y336300D01*
X923900D01*
X923500Y335900D01*
X923100Y336300D01*
X922700D01*
Y335900D01*
X923100Y335500D01*
X922700Y335100D01*
Y334700D01*
Y340200D02*
X923100D01*
X923500Y340600D01*
X923900Y340200D01*
X924300D01*
Y340600D01*
X923900Y341000D01*
X924300Y341400D01*
Y341800D01*
X923900D01*
X923500Y341400D01*
X923100Y341800D01*
X922700D01*
Y341400D01*
X923100Y341000D01*
X922700Y340600D01*
Y340200D01*
X926200D02*
X926600D01*
X927000Y340600D01*
X927400Y340200D01*
X927800D01*
Y340600D01*
X927400Y341000D01*
X927800Y341400D01*
Y341800D01*
X927400D01*
X927000Y341400D01*
X926600Y341800D01*
X926200D01*
Y341400D01*
X926600Y341000D01*
X926200Y340600D01*
Y340200D01*
X929700D02*
X930100D01*
X930500Y340600D01*
X930900Y340200D01*
X931300D01*
Y340600D01*
X930900Y341000D01*
X931300Y341400D01*
Y341800D01*
X930900D01*
X930500Y341400D01*
X930100Y341800D01*
X929700D01*
Y341400D01*
X930100Y341000D01*
X929700Y340600D01*
Y340200D01*
X928200Y345200D02*
X928600D01*
X929000Y345600D01*
X929400Y345200D01*
X929800D01*
Y345600D01*
X929400Y346000D01*
X929800Y346400D01*
Y346800D01*
X929400D01*
X929000Y346400D01*
X928600Y346800D01*
X928200D01*
Y346400D01*
X928600Y346000D01*
X928200Y345600D01*
Y345200D01*
X924700D02*
X925100D01*
X925500Y345600D01*
X925900Y345200D01*
X926300D01*
Y345600D01*
X925900Y346000D01*
X926300Y346400D01*
Y346800D01*
X925900D01*
X925500Y346400D01*
X925100Y346800D01*
X924700D01*
Y346400D01*
X925100Y346000D01*
X924700Y345600D01*
Y345200D01*
X921200D02*
X921600D01*
X922000Y345600D01*
X922400Y345200D01*
X922800D01*
Y345600D01*
X922400Y346000D01*
X922800Y346400D01*
Y346800D01*
X922400D01*
X922000Y346400D01*
X921600Y346800D01*
X921200D01*
Y346400D01*
X921600Y346000D01*
X921200Y345600D01*
Y345200D01*
X917700D02*
X918100D01*
X918500Y345600D01*
X918900Y345200D01*
X919300D01*
Y345600D01*
X918900Y346000D01*
X919300Y346400D01*
Y346800D01*
X918900D01*
X918500Y346400D01*
X918100Y346800D01*
X917700D01*
Y346400D01*
X918100Y346000D01*
X917700Y345600D01*
Y345200D01*
X911700D02*
X912100D01*
X912500Y345600D01*
X912900Y345200D01*
X913300D01*
Y345600D01*
X912900Y346000D01*
X913300Y346400D01*
Y346800D01*
X912900D01*
X912500Y346400D01*
X912100Y346800D01*
X911700D01*
Y346400D01*
X912100Y346000D01*
X911700Y345600D01*
Y345200D01*
X908200D02*
X908600D01*
X909000Y345600D01*
X909400Y345200D01*
X909800D01*
Y345600D01*
X909400Y346000D01*
X909800Y346400D01*
Y346800D01*
X909400D01*
X909000Y346400D01*
X908600Y346800D01*
X908200D01*
Y346400D01*
X908600Y346000D01*
X908200Y345600D01*
Y345200D01*
X933873Y280847D02*
X934273D01*
X934673Y281246D01*
X935073Y280847D01*
X935473D01*
Y281246D01*
X935073Y281646D01*
X935473Y282047D01*
Y282447D01*
X935073D01*
X934673Y282047D01*
X934273Y282447D01*
X933873D01*
Y282047D01*
X934273Y281646D01*
X933873Y281246D01*
Y280847D01*
X929373D02*
X929773D01*
X930173Y281246D01*
X930573Y280847D01*
X930973D01*
Y281246D01*
X930573Y281646D01*
X930973Y282047D01*
Y282447D01*
X930573D01*
X930173Y282047D01*
X929773Y282447D01*
X929373D01*
Y282047D01*
X929773Y281646D01*
X929373Y281246D01*
Y280847D01*
X924373D02*
X924773D01*
X925173Y281246D01*
X925573Y280847D01*
X925973D01*
Y281246D01*
X925573Y281646D01*
X925973Y282047D01*
Y282447D01*
X925573D01*
X925173Y282047D01*
X924773Y282447D01*
X924373D01*
Y282047D01*
X924773Y281646D01*
X924373Y281246D01*
Y280847D01*
X926373Y292200D02*
X926773D01*
X927173Y292600D01*
X927573Y292200D01*
X927973D01*
Y292600D01*
X927573Y293000D01*
X927973Y293400D01*
Y293800D01*
X927573D01*
X927173Y293400D01*
X926773Y293800D01*
X926373D01*
Y293400D01*
X926773Y293000D01*
X926373Y292600D01*
Y292200D01*
X931373D02*
X931773D01*
X932173Y292600D01*
X932573Y292200D01*
X932973D01*
Y292600D01*
X932573Y293000D01*
X932973Y293400D01*
Y293800D01*
X932573D01*
X932173Y293400D01*
X931773Y293800D01*
X931373D01*
Y293400D01*
X931773Y293000D01*
X931373Y292600D01*
Y292200D01*
X935873D02*
X936273D01*
X936673Y292600D01*
X937073Y292200D01*
X937473D01*
Y292600D01*
X937073Y293000D01*
X937473Y293400D01*
Y293800D01*
X937073D01*
X936673Y293400D01*
X936273Y293800D01*
X935873D01*
Y293400D01*
X936273Y293000D01*
X935873Y292600D01*
Y292200D01*
Y296346D02*
X936273D01*
X936673Y296746D01*
X937073Y296346D01*
X937473D01*
Y296746D01*
X937073Y297147D01*
X937473Y297547D01*
Y297947D01*
X937073D01*
X936673Y297547D01*
X936273Y297947D01*
X935873D01*
Y297547D01*
X936273Y297147D01*
X935873Y296746D01*
Y296346D01*
X931373D02*
X931773D01*
X932173Y296746D01*
X932573Y296346D01*
X932973D01*
Y296746D01*
X932573Y297147D01*
X932973Y297547D01*
Y297947D01*
X932573D01*
X932173Y297547D01*
X931773Y297947D01*
X931373D01*
Y297547D01*
X931773Y297147D01*
X931373Y296746D01*
Y296346D01*
X926373D02*
X926773D01*
X927173Y296746D01*
X927573Y296346D01*
X927973D01*
Y296746D01*
X927573Y297147D01*
X927973Y297547D01*
Y297947D01*
X927573D01*
X927173Y297547D01*
X926773Y297947D01*
X926373D01*
Y297547D01*
X926773Y297147D01*
X926373Y296746D01*
Y296346D01*
X956200Y327700D02*
X956600D01*
X957000Y328100D01*
X957400Y327700D01*
X957800D01*
Y328100D01*
X957400Y328500D01*
X957800Y328900D01*
Y329300D01*
X957400D01*
X957000Y328900D01*
X956600Y329300D01*
X956200D01*
Y328900D01*
X956600Y328500D01*
X956200Y328100D01*
Y327700D01*
X949200Y327200D02*
X949600D01*
X950000Y327600D01*
X950400Y327200D01*
X950800D01*
Y327600D01*
X950400Y328000D01*
X950800Y328400D01*
Y328800D01*
X950400D01*
X950000Y328400D01*
X949600Y328800D01*
X949200D01*
Y328400D01*
X949600Y328000D01*
X949200Y327600D01*
Y327200D01*
X881473Y278847D02*
X881873D01*
X882273Y279246D01*
X882673Y278847D01*
X883073D01*
Y279246D01*
X882673Y279646D01*
X883073Y280047D01*
Y280447D01*
X882673D01*
X882273Y280047D01*
X881873Y280447D01*
X881473D01*
Y280047D01*
X881873Y279646D01*
X881473Y279246D01*
Y278847D01*
X886200D02*
X886600D01*
X887000Y279246D01*
X887400Y278847D01*
X887800D01*
Y279246D01*
X887400Y279646D01*
X887800Y280047D01*
Y280447D01*
X887400D01*
X887000Y280047D01*
X886600Y280447D01*
X886200D01*
Y280047D01*
X886600Y279646D01*
X886200Y279246D01*
Y278847D01*
X881200Y274847D02*
X881600D01*
X882000Y275247D01*
X882400Y274847D01*
X882800D01*
Y275247D01*
X882400Y275646D01*
X882800Y276046D01*
Y276447D01*
X882400D01*
X882000Y276046D01*
X881600Y276447D01*
X881200D01*
Y276046D01*
X881600Y275646D01*
X881200Y275247D01*
Y274847D01*
X886200D02*
X886600D01*
X887000Y275247D01*
X887400Y274847D01*
X887800D01*
Y275247D01*
X887400Y275646D01*
X887800Y276046D01*
Y276447D01*
X887400D01*
X887000Y276046D01*
X886600Y276447D01*
X886200D01*
Y276046D01*
X886600Y275646D01*
X886200Y275247D01*
Y274847D01*
Y270700D02*
X886600D01*
X887000Y271100D01*
X887400Y270700D01*
X887800D01*
Y271100D01*
X887400Y271500D01*
X887800Y271900D01*
Y272300D01*
X887400D01*
X887000Y271900D01*
X886600Y272300D01*
X886200D01*
Y271900D01*
X886600Y271500D01*
X886200Y271100D01*
Y270700D01*
X881200D02*
X881600D01*
X882000Y271100D01*
X882400Y270700D01*
X882800D01*
Y271100D01*
X882400Y271500D01*
X882800Y271900D01*
Y272300D01*
X882400D01*
X882000Y271900D01*
X881600Y272300D01*
X881200D01*
Y271900D01*
X881600Y271500D01*
X881200Y271100D01*
Y270700D01*
X914200Y290200D02*
X914600D01*
X915000Y290600D01*
X915400Y290200D01*
X915800D01*
Y290600D01*
X915400Y291000D01*
X915800Y291400D01*
Y291800D01*
X915400D01*
X915000Y291400D01*
X914600Y291800D01*
X914200D01*
Y291400D01*
X914600Y291000D01*
X914200Y290600D01*
Y290200D01*
X910950D02*
X911350D01*
X911750Y290600D01*
X912150Y290200D01*
X912550D01*
Y290600D01*
X912150Y291000D01*
X912550Y291400D01*
Y291800D01*
X912150D01*
X911750Y291400D01*
X911350Y291800D01*
X910950D01*
Y291400D01*
X911350Y291000D01*
X910950Y290600D01*
Y290200D01*
X907700D02*
X908100D01*
X908500Y290600D01*
X908900Y290200D01*
X909300D01*
Y290600D01*
X908900Y291000D01*
X909300Y291400D01*
Y291800D01*
X908900D01*
X908500Y291400D01*
X908100Y291800D01*
X907700D01*
Y291400D01*
X908100Y291000D01*
X907700Y290600D01*
Y290200D01*
X842113Y331239D02*
X842513D01*
X842913Y331639D01*
X843313Y331239D01*
X843713D01*
Y331639D01*
X843313Y332039D01*
X843713Y332439D01*
Y332839D01*
X843313D01*
X842913Y332439D01*
X842513Y332839D01*
X842113D01*
Y332439D01*
X842513Y332039D01*
X842113Y331639D01*
Y331239D01*
X834239D02*
X834639D01*
X835039Y331639D01*
X835439Y331239D01*
X835839D01*
Y331639D01*
X835439Y332039D01*
X835839Y332439D01*
Y332839D01*
X835439D01*
X835039Y332439D01*
X834639Y332839D01*
X834239D01*
Y332439D01*
X834639Y332039D01*
X834239Y331639D01*
Y331239D01*
X838200Y242598D02*
X838600D01*
X839000Y242998D01*
X839400Y242598D01*
X839800D01*
Y242998D01*
X839400Y243398D01*
X839800Y243798D01*
Y244198D01*
X839400D01*
X839000Y243798D01*
X838600Y244198D01*
X838200D01*
Y243798D01*
X838600Y243398D01*
X838200Y242998D01*
Y242598D01*
X863700Y270700D02*
X864100D01*
X864500Y271100D01*
X864900Y270700D01*
X865300D01*
Y271100D01*
X864900Y271500D01*
X865300Y271900D01*
Y272300D01*
X864900D01*
X864500Y271900D01*
X864100Y272300D01*
X863700D01*
Y271900D01*
X864100Y271500D01*
X863700Y271100D01*
Y270700D01*
X877202Y219423D02*
X877602D01*
X878002Y219823D01*
X878402Y219423D01*
X878802D01*
Y219823D01*
X878402Y220223D01*
X878802Y220623D01*
Y221023D01*
X878402D01*
X878002Y220623D01*
X877602Y221023D01*
X877202D01*
Y220623D01*
X877602Y220223D01*
X877202Y219823D01*
Y219423D01*
Y209702D02*
X877602D01*
X878002Y210102D01*
X878402Y209702D01*
X878802D01*
Y210102D01*
X878402Y210502D01*
X878802Y210902D01*
Y211302D01*
X878402D01*
X878002Y210902D01*
X877602Y211302D01*
X877202D01*
Y210902D01*
X877602Y210502D01*
X877202Y210102D01*
Y209702D01*
X864450Y206200D02*
X864850D01*
X865250Y206600D01*
X865650Y206200D01*
X866050D01*
Y206600D01*
X865650Y207000D01*
X866050Y207400D01*
Y207800D01*
X865650D01*
X865250Y207400D01*
X864850Y207800D01*
X864450D01*
Y207400D01*
X864850Y207000D01*
X864450Y206600D01*
Y206200D01*
X873700D02*
X874100D01*
X874500Y206600D01*
X874900Y206200D01*
X875300D01*
Y206600D01*
X874900Y207000D01*
X875300Y207400D01*
Y207800D01*
X874900D01*
X874500Y207400D01*
X874100Y207800D01*
X873700D01*
Y207400D01*
X874100Y207000D01*
X873700Y206600D01*
Y206200D01*
X855200D02*
X855600D01*
X856000Y206600D01*
X856400Y206200D01*
X856800D01*
Y206600D01*
X856400Y207000D01*
X856800Y207400D01*
Y207800D01*
X856400D01*
X856000Y207400D01*
X855600Y207800D01*
X855200D01*
Y207400D01*
X855600Y207000D01*
X855200Y206600D01*
Y206200D01*
X851200Y253700D02*
X851600D01*
X852000Y254100D01*
X852400Y253700D01*
X852800D01*
Y254100D01*
X852400Y254500D01*
X852800Y254900D01*
Y255300D01*
X852400D01*
X852000Y254900D01*
X851600Y255300D01*
X851200D01*
Y254900D01*
X851600Y254500D01*
X851200Y254100D01*
Y253700D01*
Y239700D02*
X851600D01*
X852000Y240100D01*
X852400Y239700D01*
X852800D01*
Y240100D01*
X852400Y240500D01*
X852800Y240900D01*
Y241300D01*
X852400D01*
X852000Y240900D01*
X851600Y241300D01*
X851200D01*
Y240900D01*
X851600Y240500D01*
X851200Y240100D01*
Y239700D01*
Y225700D02*
X851600D01*
X852000Y226100D01*
X852400Y225700D01*
X852800D01*
Y226100D01*
X852400Y226500D01*
X852800Y226900D01*
Y227300D01*
X852400D01*
X852000Y226900D01*
X851600Y227300D01*
X851200D01*
Y226900D01*
X851600Y226500D01*
X851200Y226100D01*
Y225700D01*
Y210200D02*
X851600D01*
X852000Y210600D01*
X852400Y210200D01*
X852800D01*
Y210600D01*
X852400Y211000D01*
X852800Y211400D01*
Y211800D01*
X852400D01*
X852000Y211400D01*
X851600Y211800D01*
X851200D01*
Y211400D01*
X851600Y211000D01*
X851200Y210600D01*
Y210200D01*
Y265200D02*
X851600D01*
X852000Y265600D01*
X852400Y265200D01*
X852800D01*
Y265600D01*
X852400Y266000D01*
X852800Y266400D01*
Y266800D01*
X852400D01*
X852000Y266400D01*
X851600Y266800D01*
X851200D01*
Y266400D01*
X851600Y266000D01*
X851200Y265600D01*
Y265200D01*
X856700Y270700D02*
X857100D01*
X857500Y271100D01*
X857900Y270700D01*
X858300D01*
Y271100D01*
X857900Y271500D01*
X858300Y271900D01*
Y272300D01*
X857900D01*
X857500Y271900D01*
X857100Y272300D01*
X856700D01*
Y271900D01*
X857100Y271500D01*
X856700Y271100D01*
Y270700D01*
X870700D02*
X871100D01*
X871500Y271100D01*
X871900Y270700D01*
X872300D01*
Y271100D01*
X871900Y271500D01*
X872300Y271900D01*
Y272300D01*
X871900D01*
X871500Y271900D01*
X871100Y272300D01*
X870700D01*
Y271900D01*
X871100Y271500D01*
X870700Y271100D01*
Y270700D01*
X877202Y264198D02*
X877602D01*
X878002Y264598D01*
X878402Y264198D01*
X878802D01*
Y264598D01*
X878402Y264998D01*
X878802Y265398D01*
Y265798D01*
X878402D01*
X878002Y265398D01*
X877602Y265798D01*
X877202D01*
Y265398D01*
X877602Y264998D01*
X877202Y264598D01*
Y264198D01*
X877200Y257700D02*
X877600D01*
X878000Y258100D01*
X878400Y257700D01*
X878800D01*
Y258100D01*
X878400Y258500D01*
X878800Y258900D01*
Y259300D01*
X878400D01*
X878000Y258900D01*
X877600Y259300D01*
X877200D01*
Y258900D01*
X877600Y258500D01*
X877200Y258100D01*
Y257700D01*
X922212Y209712D02*
X922612D01*
X923012Y210112D01*
X923412Y209712D01*
X923812D01*
Y210112D01*
X923412Y210512D01*
X923812Y210912D01*
Y211312D01*
X923412D01*
X923012Y210912D01*
X922612Y211312D01*
X922212D01*
Y210912D01*
X922612Y210512D01*
X922212Y210112D01*
Y209712D01*
X911188Y209700D02*
X911588D01*
X911988Y210100D01*
X912388Y209700D01*
X912788D01*
Y210100D01*
X912388Y210500D01*
X912788Y210900D01*
Y211300D01*
X912388D01*
X911988Y210900D01*
X911588Y211300D01*
X911188D01*
Y210900D01*
X911588Y210500D01*
X911188Y210100D01*
Y209700D01*
X905700Y215200D02*
X906100D01*
X906500Y215600D01*
X906900Y215200D01*
X907300D01*
Y215600D01*
X906900Y216000D01*
X907300Y216400D01*
Y216800D01*
X906900D01*
X906500Y216400D01*
X906100Y216800D01*
X905700D01*
Y216400D01*
X906100Y216000D01*
X905700Y215600D01*
Y215200D01*
X909700Y223700D02*
X910100D01*
X910500Y224100D01*
X910900Y223700D01*
X911300D01*
Y224100D01*
X910900Y224500D01*
X911300Y224900D01*
Y225300D01*
X910900D01*
X910500Y224900D01*
X910100Y225300D01*
X909700D01*
Y224900D01*
X910100Y224500D01*
X909700Y224100D01*
Y223700D01*
X838200Y381653D02*
X838600D01*
X839000Y382053D01*
X839400Y381653D01*
X839800D01*
Y382053D01*
X839400Y382453D01*
X839800Y382853D01*
Y383253D01*
X839400D01*
X839000Y382853D01*
X838600Y383253D01*
X838200D01*
Y382853D01*
X838600Y382453D01*
X838200Y382053D01*
Y381653D01*
X813098Y350098D02*
X813498D01*
X813898Y350498D01*
X814298Y350098D01*
X814698D01*
Y350498D01*
X814298Y350898D01*
X814698Y351298D01*
Y351698D01*
X814298D01*
X813898Y351298D01*
X813498Y351698D01*
X813098D01*
Y351298D01*
X813498Y350898D01*
X813098Y350498D01*
Y350098D01*
X813200Y356200D02*
X813600D01*
X814000Y356600D01*
X814400Y356200D01*
X814800D01*
Y356600D01*
X814400Y357000D01*
X814800Y357400D01*
Y357800D01*
X814400D01*
X814000Y357400D01*
X813600Y357800D01*
X813200D01*
Y357400D01*
X813600Y357000D01*
X813200Y356600D01*
Y356200D01*
X825200Y405377D02*
X825600D01*
X826000Y405777D01*
X826400Y405377D01*
X826800D01*
Y405777D01*
X826400Y406177D01*
X826800Y406577D01*
Y406977D01*
X826400D01*
X826000Y406577D01*
X825600Y406977D01*
X825200D01*
Y406577D01*
X825600Y406177D01*
X825200Y405777D01*
Y405377D01*
X831361Y411539D02*
X831761D01*
X832161Y411939D01*
X832561Y411539D01*
X832961D01*
Y411939D01*
X832561Y412339D01*
X832961Y412739D01*
Y413139D01*
X832561D01*
X832161Y412739D01*
X831761Y413139D01*
X831361D01*
Y412739D01*
X831761Y412339D01*
X831361Y411939D01*
Y411539D01*
X819039D02*
X819439D01*
X819839Y411939D01*
X820239Y411539D01*
X820639D01*
Y411939D01*
X820239Y412339D01*
X820639Y412739D01*
Y413139D01*
X820239D01*
X819839Y412739D01*
X819439Y413139D01*
X819039D01*
Y412739D01*
X819439Y412339D01*
X819039Y411939D01*
Y411539D01*
X825200Y417700D02*
X825600D01*
X826000Y418100D01*
X826400Y417700D01*
X826800D01*
Y418100D01*
X826400Y418500D01*
X826800Y418900D01*
Y419300D01*
X826400D01*
X826000Y418900D01*
X825600Y419300D01*
X825200D01*
Y418900D01*
X825600Y418500D01*
X825200Y418100D01*
Y417700D01*
X874200Y350450D02*
X874600D01*
X875000Y350850D01*
X875400Y350450D01*
X875800D01*
Y350850D01*
X875400Y351250D01*
X875800Y351650D01*
Y352050D01*
X875400D01*
X875000Y351650D01*
X874600Y352050D01*
X874200D01*
Y351650D01*
X874600Y351250D01*
X874200Y350850D01*
Y350450D01*
X879200Y353200D02*
X879600D01*
X880000Y353600D01*
X880400Y353200D01*
X880800D01*
Y353600D01*
X880400Y354000D01*
X880800Y354400D01*
Y354800D01*
X880400D01*
X880000Y354400D01*
X879600Y354800D01*
X879200D01*
Y354400D01*
X879600Y354000D01*
X879200Y353600D01*
Y353200D01*
X876700Y355533D02*
X877100D01*
X877500Y355933D01*
X877900Y355533D01*
X878300D01*
Y355933D01*
X877900Y356333D01*
X878300Y356733D01*
Y357133D01*
X877900D01*
X877500Y356733D01*
X877100Y357133D01*
X876700D01*
Y356733D01*
X877100Y356333D01*
X876700Y355933D01*
Y355533D01*
X879200Y374700D02*
X879600D01*
X880000Y375100D01*
X880400Y374700D01*
X880800D01*
Y375100D01*
X880400Y375500D01*
X880800Y375900D01*
Y376300D01*
X880400D01*
X880000Y375900D01*
X879600Y376300D01*
X879200D01*
Y375900D01*
X879600Y375500D01*
X879200Y375100D01*
Y374700D01*
X876700Y365700D02*
X877100D01*
X877500Y366100D01*
X877900Y365700D01*
X878300D01*
Y366100D01*
X877900Y366500D01*
X878300Y366900D01*
Y367300D01*
X877900D01*
X877500Y366900D01*
X877100Y367300D01*
X876700D01*
Y366900D01*
X877100Y366500D01*
X876700Y366100D01*
Y365700D01*
X874200Y363200D02*
X874600D01*
X875000Y363600D01*
X875400Y363200D01*
X875800D01*
Y363600D01*
X875400Y364000D01*
X875800Y364400D01*
Y364800D01*
X875400D01*
X875000Y364400D01*
X874600Y364800D01*
X874200D01*
Y364400D01*
X874600Y364000D01*
X874200Y363600D01*
Y363200D01*
X957450Y369450D02*
X957850D01*
X958250Y369850D01*
X958650Y369450D01*
X959050D01*
Y369850D01*
X958650Y370250D01*
X959050Y370650D01*
Y371050D01*
X958650D01*
X958250Y370650D01*
X957850Y371050D01*
X957450D01*
Y370650D01*
X957850Y370250D01*
X957450Y369850D01*
Y369450D01*
Y381950D02*
X957850D01*
X958250Y382350D01*
X958650Y381950D01*
X959050D01*
Y382350D01*
X958650Y382750D01*
X959050Y383150D01*
Y383550D01*
X958650D01*
X958250Y383150D01*
X957850Y383550D01*
X957450D01*
Y383150D01*
X957850Y382750D01*
X957450Y382350D01*
Y381950D01*
X957200Y394450D02*
X957600D01*
X958000Y394850D01*
X958400Y394450D01*
X958800D01*
Y394850D01*
X958400Y395250D01*
X958800Y395650D01*
Y396050D01*
X958400D01*
X958000Y395650D01*
X957600Y396050D01*
X957200D01*
Y395650D01*
X957600Y395250D01*
X957200Y394850D01*
Y394450D01*
Y388200D02*
X957600D01*
X958000Y388600D01*
X958400Y388200D01*
X958800D01*
Y388600D01*
X958400Y389000D01*
X958800Y389400D01*
Y389800D01*
X958400D01*
X958000Y389400D01*
X957600Y389800D01*
X957200D01*
Y389400D01*
X957600Y389000D01*
X957200Y388600D01*
Y388200D01*
X969700Y400700D02*
X970100D01*
X970500Y401100D01*
X970900Y400700D01*
X971300D01*
Y401100D01*
X970900Y401500D01*
X971300Y401900D01*
Y402300D01*
X970900D01*
X970500Y401900D01*
X970100Y402300D01*
X969700D01*
Y401900D01*
X970100Y401500D01*
X969700Y401100D01*
Y400700D01*
X963450D02*
X963850D01*
X964250Y401100D01*
X964650Y400700D01*
X965050D01*
Y401100D01*
X964650Y401500D01*
X965050Y401900D01*
Y402300D01*
X964650D01*
X964250Y401900D01*
X963850Y402300D01*
X963450D01*
Y401900D01*
X963850Y401500D01*
X963450Y401100D01*
Y400700D01*
X957200D02*
X957600D01*
X958000Y401100D01*
X958400Y400700D01*
X958800D01*
Y401100D01*
X958400Y401500D01*
X958800Y401900D01*
Y402300D01*
X958400D01*
X958000Y401900D01*
X957600Y402300D01*
X957200D01*
Y401900D01*
X957600Y401500D01*
X957200Y401100D01*
Y400700D01*
X848200Y363200D02*
X848600D01*
X849000Y363600D01*
X849400Y363200D01*
X849800D01*
Y363600D01*
X849400Y364000D01*
X849800Y364400D01*
Y364800D01*
X849400D01*
X849000Y364400D01*
X848600Y364800D01*
X848200D01*
Y364400D01*
X848600Y364000D01*
X848200Y363600D01*
Y363200D01*
X856700D02*
X857100D01*
X857500Y363600D01*
X857900Y363200D01*
X858300D01*
Y363600D01*
X857900Y364000D01*
X858300Y364400D01*
Y364800D01*
X857900D01*
X857500Y364400D01*
X857100Y364800D01*
X856700D01*
Y364400D01*
X857100Y364000D01*
X856700Y363600D01*
Y363200D01*
X870200Y376649D02*
X870600D01*
X871000Y377049D01*
X871400Y376649D01*
X871800D01*
Y377049D01*
X871400Y377449D01*
X871800Y377849D01*
Y378249D01*
X871400D01*
X871000Y377849D01*
X870600Y378249D01*
X870200D01*
Y377849D01*
X870600Y377449D01*
X870200Y377049D01*
Y376649D01*
X870262Y413068D02*
X870662D01*
X871062Y413468D01*
X871462Y413068D01*
X871862D01*
Y413468D01*
X871462Y413868D01*
X871862Y414268D01*
Y414668D01*
X871462D01*
X871062Y414268D01*
X870662Y414668D01*
X870262D01*
Y414268D01*
X870662Y413868D01*
X870262Y413468D01*
Y413068D01*
Y420638D02*
X870662D01*
X871062Y421038D01*
X871462Y420638D01*
X871862D01*
Y421038D01*
X871462Y421438D01*
X871862Y421838D01*
Y422238D01*
X871462D01*
X871062Y421838D01*
X870662Y422238D01*
X870262D01*
Y421838D01*
X870662Y421438D01*
X870262Y421038D01*
Y420638D01*
X863200Y427700D02*
X863600D01*
X864000Y428100D01*
X864400Y427700D01*
X864800D01*
Y428100D01*
X864400Y428500D01*
X864800Y428900D01*
Y429300D01*
X864400D01*
X864000Y428900D01*
X863600Y429300D01*
X863200D01*
Y428900D01*
X863600Y428500D01*
X863200Y428100D01*
Y427700D01*
X849200D02*
X849600D01*
X850000Y428100D01*
X850400Y427700D01*
X850800D01*
Y428100D01*
X850400Y428500D01*
X850800Y428900D01*
Y429300D01*
X850400D01*
X850000Y428900D01*
X849600Y429300D01*
X849200D01*
Y428900D01*
X849600Y428500D01*
X849200Y428100D01*
Y427700D01*
X844760Y423260D02*
X845160D01*
X845560Y423660D01*
X845960Y423260D01*
X846360D01*
Y423660D01*
X845960Y424060D01*
X846360Y424460D01*
Y424860D01*
X845960D01*
X845560Y424460D01*
X845160Y424860D01*
X844760D01*
Y424460D01*
X845160Y424060D01*
X844760Y423660D01*
Y423260D01*
X844700Y416200D02*
X845100D01*
X845500Y416600D01*
X845900Y416200D01*
X846300D01*
Y416600D01*
X845900Y417000D01*
X846300Y417400D01*
Y417800D01*
X845900D01*
X845500Y417400D01*
X845100Y417800D01*
X844700D01*
Y417400D01*
X845100Y417000D01*
X844700Y416600D01*
Y416200D01*
Y403200D02*
X845100D01*
X845500Y403600D01*
X845900Y403200D01*
X846300D01*
Y403600D01*
X845900Y404000D01*
X846300Y404400D01*
Y404800D01*
X845900D01*
X845500Y404400D01*
X845100Y404800D01*
X844700D01*
Y404400D01*
X845100Y404000D01*
X844700Y403600D01*
Y403200D01*
Y388700D02*
X845100D01*
X845500Y389100D01*
X845900Y388700D01*
X846300D01*
Y389100D01*
X845900Y389500D01*
X846300Y389900D01*
Y390300D01*
X845900D01*
X845500Y389900D01*
X845100Y390300D01*
X844700D01*
Y389900D01*
X845100Y389500D01*
X844700Y389100D01*
Y388700D01*
Y377200D02*
X845100D01*
X845500Y377600D01*
X845900Y377200D01*
X846300D01*
Y377600D01*
X845900Y378000D01*
X846300Y378400D01*
Y378800D01*
X845900D01*
X845500Y378400D01*
X845100Y378800D01*
X844700D01*
Y378400D01*
X845100Y378000D01*
X844700Y377600D01*
Y377200D01*
X844760Y366640D02*
X845160D01*
X845560Y367040D01*
X845960Y366640D01*
X846360D01*
Y367040D01*
X845960Y367440D01*
X846360Y367840D01*
Y368240D01*
X845960D01*
X845560Y367840D01*
X845160Y368240D01*
X844760D01*
Y367840D01*
X845160Y367440D01*
X844760Y367040D01*
Y366640D01*
X865200Y363200D02*
X865600D01*
X866000Y363600D01*
X866400Y363200D01*
X866800D01*
Y363600D01*
X866400Y364000D01*
X866800Y364400D01*
Y364800D01*
X866400D01*
X866000Y364400D01*
X865600Y364800D01*
X865200D01*
Y364400D01*
X865600Y364000D01*
X865200Y363600D01*
Y363200D01*
X870200Y368200D02*
X870600D01*
X871000Y368600D01*
X871400Y368200D01*
X871800D01*
Y368600D01*
X871400Y369000D01*
X871800Y369400D01*
Y369800D01*
X871400D01*
X871000Y369400D01*
X870600Y369800D01*
X870200D01*
Y369400D01*
X870600Y369000D01*
X870200Y368600D01*
Y368200D01*
X876700Y380901D02*
X877100D01*
X877500Y381301D01*
X877900Y380901D01*
X878300D01*
Y381301D01*
X877900Y381701D01*
X878300Y382101D01*
Y382501D01*
X877900D01*
X877500Y382101D01*
X877100Y382501D01*
X876700D01*
Y382101D01*
X877100Y381701D01*
X876700Y381301D01*
Y380901D01*
X900200Y363901D02*
X900600D01*
X901000Y364301D01*
X901400Y363901D01*
X901800D01*
Y364301D01*
X901400Y364701D01*
X901800Y365101D01*
Y365501D01*
X901400D01*
X901000Y365101D01*
X900600Y365501D01*
X900200D01*
Y365101D01*
X900600Y364701D01*
X900200Y364301D01*
Y363901D01*
X904200Y359901D02*
X904600D01*
X905000Y360301D01*
X905400Y359901D01*
X905800D01*
Y360301D01*
X905400Y360701D01*
X905800Y361101D01*
Y361501D01*
X905400D01*
X905000Y361101D01*
X904600Y361501D01*
X904200D01*
Y361101D01*
X904600Y360701D01*
X904200Y360301D01*
Y359901D01*
X908200Y363901D02*
X908600D01*
X909000Y364301D01*
X909400Y363901D01*
X909800D01*
Y364301D01*
X909400Y364701D01*
X909800Y365101D01*
Y365501D01*
X909400D01*
X909000Y365101D01*
X908600Y365501D01*
X908200D01*
Y365101D01*
X908600Y364701D01*
X908200Y364301D01*
Y363901D01*
X916200Y364098D02*
X916600D01*
X917000Y364498D01*
X917400Y364098D01*
X917800D01*
Y364498D01*
X917400Y364898D01*
X917800Y365298D01*
Y365698D01*
X917400D01*
X917000Y365298D01*
X916600Y365698D01*
X916200D01*
Y365298D01*
X916600Y364898D01*
X916200Y364498D01*
Y364098D01*
X912200Y360098D02*
X912600D01*
X913000Y360498D01*
X913400Y360098D01*
X913800D01*
Y360498D01*
X913400Y360898D01*
X913800Y361298D01*
Y361698D01*
X913400D01*
X913000Y361298D01*
X912600Y361698D01*
X912200D01*
Y361298D01*
X912600Y360898D01*
X912200Y360498D01*
Y360098D01*
X910058Y387200D02*
X910458D01*
X910858Y387600D01*
X911258Y387200D01*
X911658D01*
Y387600D01*
X911258Y388000D01*
X911658Y388400D01*
Y388800D01*
X911258D01*
X910858Y388400D01*
X910458Y388800D01*
X910058D01*
Y388400D01*
X910458Y388000D01*
X910058Y387600D01*
Y387200D01*
X911842Y405058D02*
X912242D01*
X912642Y405458D01*
X913042Y405058D01*
X913442D01*
Y405458D01*
X913042Y405858D01*
X913442Y406258D01*
Y406658D01*
X913042D01*
X912642Y406258D01*
X912242Y406658D01*
X911842D01*
Y406258D01*
X912242Y405858D01*
X911842Y405458D01*
Y405058D01*
X932802Y411200D02*
X933202D01*
X933602Y411600D01*
X934002Y411200D01*
X934402D01*
Y411600D01*
X934002Y412000D01*
X934402Y412400D01*
Y412800D01*
X934002D01*
X933602Y412400D01*
X933202Y412800D01*
X932802D01*
Y412400D01*
X933202Y412000D01*
X932802Y411600D01*
Y411200D01*
X926700D02*
X927100D01*
X927500Y411600D01*
X927900Y411200D01*
X928300D01*
Y411600D01*
X927900Y412000D01*
X928300Y412400D01*
Y412800D01*
X927900D01*
X927500Y412400D01*
X927100Y412800D01*
X926700D01*
Y412400D01*
X927100Y412000D01*
X926700Y411600D01*
Y411200D01*
X886200Y430302D02*
X886600D01*
X887000Y430702D01*
X887400Y430302D01*
X887800D01*
Y430702D01*
X887400Y431102D01*
X887800Y431502D01*
Y431902D01*
X887400D01*
X887000Y431502D01*
X886600Y431902D01*
X886200D01*
Y431502D01*
X886600Y431102D01*
X886200Y430702D01*
Y430302D01*
X873944Y405427D02*
X874344D01*
X874744Y405827D01*
X875144Y405427D01*
X875544D01*
Y405827D01*
X875144Y406227D01*
X875544Y406627D01*
Y407027D01*
X875144D01*
X874744Y406627D01*
X874344Y407027D01*
X873944D01*
Y406627D01*
X874344Y406227D01*
X873944Y405827D01*
Y405427D01*
Y399325D02*
X874344D01*
X874744Y399725D01*
X875144Y399325D01*
X875544D01*
Y399725D01*
X875144Y400125D01*
X875544Y400525D01*
Y400925D01*
X875144D01*
X874744Y400525D01*
X874344Y400925D01*
X873944D01*
Y400525D01*
X874344Y400125D01*
X873944Y399725D01*
Y399325D01*
X891200Y391200D02*
X891600D01*
X892000Y391600D01*
X892400Y391200D01*
X892800D01*
Y391600D01*
X892400Y392000D01*
X892800Y392400D01*
Y392800D01*
X892400D01*
X892000Y392400D01*
X891600Y392800D01*
X891200D01*
Y392400D01*
X891600Y392000D01*
X891200Y391600D01*
Y391200D01*
X891184Y395216D02*
X891584D01*
X891984Y395616D01*
X892384Y395216D01*
X892784D01*
Y395616D01*
X892384Y396016D01*
X892784Y396416D01*
Y396816D01*
X892384D01*
X891984Y396416D01*
X891584Y396816D01*
X891184D01*
Y396416D01*
X891584Y396016D01*
X891184Y395616D01*
Y395216D01*
D102*
X983300Y409988D02*
G03*
X983300Y409988I-800J0D01*
G01*
Y399988D02*
G03*
X983300Y399988I-800J0D01*
G01*
Y389988D02*
G03*
X983300Y389988I-800J0D01*
G01*
Y379988D02*
G03*
X983300Y379988I-800J0D01*
G01*
M02*
