G04*
G04 #@! TF.GenerationSoftware,Altium Limited,Altium Designer,19.1.8 (144)*
G04*
G04 Layer_Color=65535*
%FSLAX25Y25*%
%MOIN*%
G70*
G01*
G75*
%ADD10C,0.00500*%
%ADD11C,0.01000*%
%ADD12C,0.00984*%
%ADD13C,0.02362*%
%ADD14C,0.00787*%
%ADD15R,0.04724X0.09449*%
%ADD16R,0.07874X0.04724*%
%ADD17C,0.00598*%
%ADD18C,0.00591*%
%ADD19C,0.00600*%
%ADD20C,0.00800*%
G36*
X816369Y352400D02*
X820769D01*
X818569Y354600D01*
X816369Y352400D01*
D02*
G37*
G36*
X947800Y319790D02*
X952200D01*
X950000Y321990D01*
X947800Y319790D01*
D02*
G37*
D10*
X924547Y406600D02*
G03*
X925903Y405244I1356J0D01*
G01*
X925951Y410800D02*
G03*
X924547Y409396I0J-1404D01*
G01*
X936555D02*
G03*
X935151Y410800I-1404J0D01*
G01*
X935199Y405244D02*
G03*
X936555Y406600I0J1356D01*
G01*
X811400Y347945D02*
G03*
X812756Y349301I0J1356D01*
G01*
X807200Y349349D02*
G03*
X808604Y347945I1404J0D01*
G01*
Y359953D02*
G03*
X807200Y358549I0J-1404D01*
G01*
X812756Y358597D02*
G03*
X811400Y359953I-1356J0D01*
G01*
X837600Y395504D02*
G03*
X836244Y394148I0J-1356D01*
G01*
X841800Y394100D02*
G03*
X840396Y395504I-1404J0D01*
G01*
Y383496D02*
G03*
X841800Y384900I0J1404D01*
G01*
X836244Y384852D02*
G03*
X837600Y383496I1356J0D01*
G01*
X872400Y382945D02*
G03*
X873756Y384301I0J1356D01*
G01*
X868200Y384349D02*
G03*
X869604Y382945I1404J0D01*
G01*
Y394953D02*
G03*
X868200Y393549I0J-1404D01*
G01*
X873756Y393597D02*
G03*
X872400Y394953I-1356J0D01*
G01*
X876100Y408953D02*
G03*
X874744Y407597I0J-1356D01*
G01*
X880300Y407549D02*
G03*
X878896Y408953I-1404J0D01*
G01*
Y396945D02*
G03*
X880300Y398349I0J1404D01*
G01*
X874744Y398301D02*
G03*
X876100Y396945I1356J0D01*
G01*
X869662Y409250D02*
G03*
X868306Y407894I0J-1356D01*
G01*
X873862Y407846D02*
G03*
X872458Y409250I-1404J0D01*
G01*
Y397242D02*
G03*
X873862Y398646I0J1404D01*
G01*
X868306Y398598D02*
G03*
X869662Y397242I1356J0D01*
G01*
X881004Y432400D02*
G03*
X879648Y433756I-1356J0D01*
G01*
X879600Y428200D02*
G03*
X881004Y429604I0J1404D01*
G01*
X868996D02*
G03*
X870400Y428200I1404J0D01*
G01*
X870352Y433756D02*
G03*
X868996Y432400I0J-1356D01*
G01*
X892400Y422047D02*
G03*
X893756Y423403I0J1356D01*
G01*
X888200Y423451D02*
G03*
X889604Y422047I1404J0D01*
G01*
Y434055D02*
G03*
X888200Y432651I0J-1404D01*
G01*
X893756Y432699D02*
G03*
X892400Y434055I-1356J0D01*
G01*
X911600Y373953D02*
G03*
X910244Y372597I0J-1356D01*
G01*
X915800Y372549D02*
G03*
X914396Y373953I-1404J0D01*
G01*
Y361945D02*
G03*
X915800Y363349I0J1404D01*
G01*
X910244Y363301D02*
G03*
X911600Y361945I1356J0D01*
G01*
X909047Y337100D02*
G03*
X910403Y335744I1356J0D01*
G01*
X910451Y341300D02*
G03*
X909047Y339896I0J-1404D01*
G01*
X921055D02*
G03*
X919651Y341300I-1404J0D01*
G01*
X919699Y335744D02*
G03*
X921055Y337100I0J1356D01*
G01*
X911445Y223100D02*
G03*
X912801Y221744I1356J0D01*
G01*
X912849Y227300D02*
G03*
X911445Y225896I0J-1404D01*
G01*
X923453D02*
G03*
X922049Y227300I-1404J0D01*
G01*
X922097Y221744D02*
G03*
X923453Y223100I0J1356D01*
G01*
X879402Y241043D02*
G03*
X880758Y242399I0J1356D01*
G01*
X875202Y242447D02*
G03*
X876606Y241043I1404J0D01*
G01*
Y253051D02*
G03*
X875202Y251647I0J-1404D01*
G01*
X880758Y251695D02*
G03*
X879402Y253051I-1356J0D01*
G01*
X876602Y239000D02*
G03*
X875246Y237644I0J-1356D01*
G01*
X880802Y237596D02*
G03*
X879398Y239000I-1404J0D01*
G01*
Y226992D02*
G03*
X880802Y228396I0J1404D01*
G01*
X875246Y228348D02*
G03*
X876602Y226992I1356J0D01*
G01*
X844400Y240445D02*
G03*
X845756Y241801I0J1356D01*
G01*
X840200Y241849D02*
G03*
X841604Y240445I1404J0D01*
G01*
Y252453D02*
G03*
X840200Y251049I0J-1404D01*
G01*
X845756Y251097D02*
G03*
X844400Y252453I-1356J0D01*
G01*
X925903Y405244D02*
X929551D01*
X924547Y406600D02*
Y409396D01*
X925951Y410800D02*
X929551D01*
X931551D02*
X935151D01*
X936555Y406600D02*
Y409396D01*
X931551Y405244D02*
X935199D01*
X931051Y406000D02*
Y410000D01*
X930000Y406000D02*
Y410000D01*
X812756Y349301D02*
Y352949D01*
X808604Y347945D02*
X811400D01*
X807200Y349349D02*
Y352949D01*
Y354949D02*
Y358549D01*
X808604Y359953D02*
X811400D01*
X812756Y354949D02*
Y358597D01*
X808000Y354449D02*
X812000D01*
X808000Y353398D02*
X812000D01*
X836244Y390500D02*
Y394148D01*
X837600Y395504D02*
X840396D01*
X841800Y390500D02*
Y394100D01*
Y384900D02*
Y388500D01*
X837600Y383496D02*
X840396D01*
X836244Y384852D02*
Y388500D01*
X837000Y389000D02*
X841000D01*
X837000Y390051D02*
X841000D01*
X873756Y384301D02*
Y387949D01*
X869604Y382945D02*
X872400D01*
X868200Y384349D02*
Y387949D01*
Y389949D02*
Y393549D01*
X869604Y394953D02*
X872400D01*
X873756Y389949D02*
Y393597D01*
X869000Y389449D02*
X873000D01*
X869000Y388398D02*
X873000D01*
X874744Y403949D02*
Y407597D01*
X876100Y408953D02*
X878896D01*
X880300Y403949D02*
Y407549D01*
Y398349D02*
Y401949D01*
X876100Y396945D02*
X878896D01*
X874744Y398301D02*
Y401949D01*
X875500Y402449D02*
X879500D01*
X875500Y403500D02*
X879500D01*
X868306Y404246D02*
Y407894D01*
X869662Y409250D02*
X872458D01*
X873862Y404246D02*
Y407846D01*
Y398646D02*
Y402246D01*
X869662Y397242D02*
X872458D01*
X868306Y398598D02*
Y402246D01*
X869062Y402746D02*
X873062D01*
X869062Y403797D02*
X873062D01*
X876000Y433756D02*
X879648D01*
X881004Y429604D02*
Y432400D01*
X876000Y428200D02*
X879600D01*
X870400D02*
X874000D01*
X868996Y429604D02*
Y432400D01*
X870352Y433756D02*
X874000D01*
X874500Y429000D02*
Y433000D01*
X875551Y429000D02*
Y433000D01*
X893756Y423403D02*
Y427051D01*
X889604Y422047D02*
X892400D01*
X888200Y423451D02*
Y427051D01*
Y429051D02*
Y432651D01*
X889604Y434055D02*
X892400D01*
X893756Y429051D02*
Y432699D01*
X889000Y428551D02*
X893000D01*
X889000Y427500D02*
X893000D01*
X871741Y345281D02*
X871810Y345350D01*
X926859Y345309D02*
X926900Y345350D01*
X910244Y368949D02*
Y372597D01*
X911600Y373953D02*
X914396D01*
X915800Y368949D02*
Y372549D01*
Y363349D02*
Y366949D01*
X911600Y361945D02*
X914396D01*
X910244Y363301D02*
Y366949D01*
X911000Y367449D02*
X915000D01*
X911000Y368500D02*
X915000D01*
X910403Y335744D02*
X914051D01*
X909047Y337100D02*
Y339896D01*
X910451Y341300D02*
X914051D01*
X916051D02*
X919651D01*
X921055Y337100D02*
Y339896D01*
X916051Y335744D02*
X919699D01*
X915551Y336500D02*
Y340500D01*
X914500Y336500D02*
Y340500D01*
X912801Y221744D02*
X916449D01*
X911445Y223100D02*
Y225896D01*
X912849Y227300D02*
X916449D01*
X918449D02*
X922049D01*
X923453Y223100D02*
Y225896D01*
X918449Y221744D02*
X922097D01*
X917949Y222500D02*
Y226500D01*
X916898Y222500D02*
Y226500D01*
X880758Y242399D02*
Y246047D01*
X876606Y241043D02*
X879402D01*
X875202Y242447D02*
Y246047D01*
Y248047D02*
Y251647D01*
X876606Y253051D02*
X879402D01*
X880758Y248047D02*
Y251695D01*
X876002Y247547D02*
X880002D01*
X876002Y246496D02*
X880002D01*
X875246Y233996D02*
Y237644D01*
X876602Y239000D02*
X879398D01*
X880802Y233996D02*
Y237596D01*
Y228396D02*
Y231996D01*
X876602Y226992D02*
X879398D01*
X875246Y228348D02*
Y231996D01*
X876002Y232496D02*
X880002D01*
X876002Y233547D02*
X880002D01*
X845756Y241801D02*
Y245449D01*
X841604Y240445D02*
X844400D01*
X840200Y241849D02*
Y245449D01*
Y247449D02*
Y251049D01*
X841604Y252453D02*
X844400D01*
X845756Y247449D02*
Y251097D01*
X841000Y246949D02*
X845000D01*
X841000Y245898D02*
X845000D01*
X801500Y360000D02*
Y361000D01*
Y360500D01*
X798501D01*
X799001Y360000D01*
X801779Y391015D02*
X798780D01*
X800280Y389516D01*
Y391515D01*
D11*
X817748Y437000D02*
G03*
X817748Y437000I-15748J0D01*
G01*
X989748D02*
G03*
X989748Y437000I-15748J0D01*
G01*
Y204500D02*
G03*
X989748Y204500I-15748J0D01*
G01*
X817748D02*
G03*
X817748Y204500I-15748J0D01*
G01*
X972500Y345000D02*
X990000D01*
X927126Y224500D02*
Y270622D01*
X950669D01*
X992126D01*
Y223220D02*
Y270622D01*
X950669Y223220D02*
X992126D01*
X927126D02*
X950669D01*
X927126D02*
Y224500D01*
X755512Y260279D02*
Y324059D01*
X783913D01*
X846413D02*
X850000D01*
X846413Y260279D02*
X850000D01*
X755512D02*
X783913D01*
X850000Y315559D02*
Y324059D01*
Y260279D02*
Y269059D01*
X845560Y446855D02*
X953000D01*
X953040Y337407D02*
Y446855D01*
X845560Y337407D02*
Y446855D01*
X871741Y337407D02*
Y345281D01*
X871810Y345350D02*
X918916D01*
X926900D01*
X926859Y337407D02*
Y345309D01*
Y337407D02*
X953040D01*
X845560D02*
X871741D01*
X873449Y216559D02*
Y261441D01*
X870496D02*
X873449D01*
X870496Y216559D02*
X873449D01*
X854551Y261441D02*
X857504D01*
X854551Y216559D02*
X857504D01*
X854551D02*
Y261441D01*
X847113Y373754D02*
Y418636D01*
Y373754D02*
X850066D01*
X847113Y418636D02*
X850066D01*
X863058Y373754D02*
X866011D01*
X863058Y418636D02*
X866011D01*
Y373754D02*
Y418636D01*
D12*
X884492Y411000D02*
G03*
X884492Y411000I-492J0D01*
G01*
X869272Y333992D02*
G03*
X869272Y333992I-492J0D01*
G01*
X924339Y254549D02*
G03*
X924339Y254549I-492J0D01*
G01*
D13*
X896291Y403890D02*
G03*
X896291Y403890I-1181J0D01*
G01*
X919929Y247894D02*
G03*
X919929Y247894I-1181J0D01*
G01*
D14*
X910324Y318643D02*
G03*
X934676Y318643I12176J2357D01*
G01*
Y323357D02*
G03*
X910324Y323357I-12176J-2357D01*
G01*
Y284143D02*
G03*
X934676Y284143I12176J2357D01*
G01*
Y288857D02*
G03*
X910324Y288857I-12176J-2357D01*
G01*
X863824Y284143D02*
G03*
X888176Y284143I12176J2357D01*
G01*
Y288857D02*
G03*
X863824Y288857I-12176J-2357D01*
G01*
X982140Y290534D02*
G03*
X982140Y290534I-3640J0D01*
G01*
Y332000D02*
G03*
X982140Y332000I-3640J0D01*
G01*
Y318178D02*
G03*
X982140Y318178I-3640J0D01*
G01*
Y304356D02*
G03*
X982140Y304356I-3640J0D01*
G01*
X977500Y374988D02*
X987500D01*
X977500D02*
Y414988D01*
X987500Y374988D02*
Y414988D01*
X977500D02*
X987500D01*
X815769Y347900D02*
X821369D01*
Y350390D01*
X815769Y347900D02*
Y350390D01*
Y356610D02*
Y359100D01*
X821369Y356610D02*
Y359100D01*
X815769D02*
X821369D01*
X817186Y344239D02*
Y346679D01*
X815965Y345459D02*
X818406D01*
X804827Y351878D02*
Y399122D01*
X783173Y351878D02*
Y399122D01*
X804827D01*
X783173Y351878D02*
X804827D01*
X798500Y375500D02*
X804827D01*
X819150Y384189D02*
Y407811D01*
X832929D01*
Y384189D02*
Y407811D01*
X819150Y384189D02*
X832929D01*
X823047Y390114D02*
X828953D01*
Y401925D01*
X823047D02*
X828953D01*
X823047Y390114D02*
Y401925D01*
X891000Y386000D02*
Y408000D01*
X913000Y386000D02*
Y408000D01*
X891000D02*
X913000D01*
X891000Y386000D02*
X913000D01*
X947200Y315290D02*
X952800D01*
Y317779D01*
X947200Y315290D02*
Y317779D01*
Y324000D02*
Y326490D01*
X952800Y324000D02*
Y326490D01*
X947200D02*
X952800D01*
X948617Y311628D02*
Y314069D01*
X947397Y312849D02*
X949838D01*
X922500Y319000D02*
X925000D01*
X922500Y317000D02*
X934200D01*
X922500Y315000D02*
X933300D01*
X922500Y313000D02*
X931900D01*
X922500Y311000D02*
X929800D01*
X922500Y331000D02*
X929800D01*
X922500Y329000D02*
X931900D01*
X922500Y327000D02*
X933300D01*
X922500Y325000D02*
X934200D01*
X922500Y323000D02*
X925000D01*
X922500Y321000D02*
X925000D01*
X922500Y308598D02*
Y333402D01*
X909508Y311945D02*
X913445Y308008D01*
X935492D01*
X909508Y311945D02*
Y318638D01*
X935492Y308008D02*
Y318638D01*
Y323362D02*
Y333992D01*
X909508Y323362D02*
Y330055D01*
X913445Y333992D02*
X935492D01*
X909508Y330055D02*
X913445Y333992D01*
X874094Y307811D02*
Y334189D01*
X885905Y307811D02*
Y334189D01*
X874094D02*
X885905D01*
X874094Y307811D02*
X885905D01*
X922500Y284500D02*
X925000D01*
X922500Y282500D02*
X934200D01*
X922500Y280500D02*
X933300D01*
X922500Y278500D02*
X931900D01*
X922500Y276500D02*
X929800D01*
X922500Y296500D02*
X929800D01*
X922500Y294500D02*
X931900D01*
X922500Y292500D02*
X933300D01*
X922500Y290500D02*
X934200D01*
X922500Y288500D02*
X925000D01*
X922500Y286500D02*
X925000D01*
X922500Y274098D02*
Y298902D01*
X909508Y277445D02*
X913445Y273508D01*
X935492D01*
X909508Y277445D02*
Y284138D01*
X935492Y273508D02*
Y284138D01*
Y288862D02*
Y299492D01*
X909508Y288862D02*
Y295555D01*
X913445Y299492D02*
X935492D01*
X909508Y295555D02*
X913445Y299492D01*
X876000Y284500D02*
X878500D01*
X876000Y282500D02*
X887700D01*
X876000Y280500D02*
X886800D01*
X876000Y278500D02*
X885400D01*
X876000Y276500D02*
X883300D01*
X876000Y296500D02*
X883300D01*
X876000Y294500D02*
X885400D01*
X876000Y292500D02*
X886800D01*
X876000Y290500D02*
X887700D01*
X876000Y288500D02*
X878500D01*
X876000Y286500D02*
X878500D01*
X876000Y274098D02*
Y298902D01*
X863008Y277445D02*
X866945Y273508D01*
X888992D01*
X863008Y277445D02*
Y284138D01*
X888992Y273508D02*
Y284138D01*
Y288862D02*
Y299492D01*
X863008Y288862D02*
Y295555D01*
X866945Y299492D02*
X888992D01*
X863008Y295555D02*
X866945Y299492D01*
X883315Y251400D02*
X922685D01*
X883315Y238600D02*
X922685D01*
Y251400D01*
X883315Y238600D02*
Y251400D01*
D15*
X835039Y261067D02*
D03*
X827165D02*
D03*
X819291D02*
D03*
X811417D02*
D03*
X795669D02*
D03*
X803543Y323272D02*
D03*
X811417D02*
D03*
X819291D02*
D03*
X827165D02*
D03*
D16*
X850000Y312248D02*
D03*
Y304374D02*
D03*
Y296500D02*
D03*
Y288626D02*
D03*
Y280752D02*
D03*
Y272878D02*
D03*
D17*
X966200Y387000D02*
X972800D01*
X966200Y385000D02*
X972800D01*
X916500Y212700D02*
Y219300D01*
X918500Y212700D02*
Y219300D01*
D18*
X974224Y375000D02*
Y376157D01*
X964776Y375000D02*
X974224D01*
X964776D02*
Y376157D01*
Y381669D01*
Y376157D02*
X974224D01*
Y390724D01*
Y395843D01*
X964776D02*
X974224D01*
X964776Y381669D02*
Y395843D01*
X896000Y298000D02*
X903000D01*
X903043Y275189D02*
Y299000D01*
X895957Y275189D02*
Y299000D01*
X903043D01*
X895957Y275189D02*
X903043D01*
X927343Y220724D02*
X928500D01*
Y211276D02*
Y220724D01*
X927343Y211276D02*
X928500D01*
X921831D02*
X927343D01*
Y220724D01*
X912776D02*
X927343D01*
X907658D02*
X912776D01*
X907658Y211276D02*
Y220724D01*
Y211276D02*
X921831D01*
D19*
X829500Y347516D02*
Y352303D01*
X824100Y347516D02*
X829500D01*
X824100D02*
Y352303D01*
Y354697D02*
Y359484D01*
X829500D01*
Y354697D02*
Y359484D01*
X812700Y361366D02*
Y366154D01*
X807300Y361366D02*
X812700D01*
X807300D02*
Y366154D01*
Y368547D02*
Y373335D01*
X812700D01*
Y368547D02*
Y373335D01*
X874800Y390047D02*
Y394835D01*
X880200D01*
Y390047D02*
Y394835D01*
Y382866D02*
Y387653D01*
X874800Y382866D02*
X880200D01*
X874800D02*
Y387653D01*
X896300Y429347D02*
Y434134D01*
X901700D01*
Y429347D02*
Y434134D01*
Y422165D02*
Y426953D01*
X896300Y422165D02*
X901700D01*
X896300D02*
Y426953D01*
X907700Y361866D02*
Y366653D01*
X902300Y361866D02*
X907700D01*
X902300D02*
Y366653D01*
Y369047D02*
Y373835D01*
X907700D01*
Y369047D02*
Y373835D01*
X959700Y315165D02*
Y319953D01*
X954300Y315165D02*
X959700D01*
X954300D02*
Y319953D01*
Y322346D02*
Y327134D01*
X959700D01*
Y322346D02*
Y327134D01*
X784800Y247615D02*
Y252403D01*
X790200D01*
Y247615D02*
Y252403D01*
Y240434D02*
Y245222D01*
X784800Y240434D02*
X790200D01*
X784800D02*
Y245222D01*
X800800Y247615D02*
Y252403D01*
X806200D01*
Y247615D02*
Y252403D01*
Y240434D02*
Y245222D01*
X800800Y240434D02*
X806200D01*
X800800D02*
Y245222D01*
D20*
X817000Y387000D02*
X813001D01*
Y388999D01*
X813668Y389666D01*
X815001D01*
X815667Y388999D01*
Y387000D01*
Y388333D02*
X817000Y389666D01*
X813001Y393665D02*
Y390999D01*
X817000D01*
Y393665D01*
X815001Y390999D02*
Y392332D01*
X813668Y397663D02*
X813001Y396997D01*
Y395664D01*
X813668Y394997D01*
X814334D01*
X815001Y395664D01*
Y396997D01*
X815667Y397663D01*
X816334D01*
X817000Y396997D01*
Y395664D01*
X816334Y394997D01*
X813001Y401662D02*
Y398996D01*
X817000D01*
Y401662D01*
X815001Y398996D02*
Y400329D01*
X813001Y402995D02*
Y405661D01*
Y404328D01*
X817000D01*
X979666Y370832D02*
X978999Y371499D01*
X977666D01*
X977000Y370832D01*
Y368166D01*
X977666Y367500D01*
X978999D01*
X979666Y368166D01*
Y369499D01*
X978333D01*
X980999Y367500D02*
Y371499D01*
X983665Y367500D01*
Y371499D01*
X984997D02*
Y367500D01*
X986997D01*
X987663Y368166D01*
Y370832D01*
X986997Y371499D01*
X984997D01*
X977166Y364499D02*
X975833D01*
X976499D01*
Y361166D01*
X975833Y360500D01*
X975167D01*
X974500Y361166D01*
X978499Y364499D02*
X981164D01*
X979832D01*
Y360500D01*
X985163Y363832D02*
X984497Y364499D01*
X983164D01*
X982497Y363832D01*
Y361166D01*
X983164Y360500D01*
X984497D01*
X985163Y361166D01*
X986496Y364499D02*
Y360500D01*
Y361833D01*
X989162Y364499D01*
X987163Y362499D01*
X989162Y360500D01*
X977166Y357499D02*
X975833D01*
X976499D01*
Y354166D01*
X975833Y353500D01*
X975167D01*
X974500Y354166D01*
X978499Y357499D02*
X981164D01*
X979832D01*
Y353500D01*
X982497D02*
Y357499D01*
X983830Y356166D01*
X985163Y357499D01*
Y353500D01*
X989162Y356832D02*
X988496Y357499D01*
X987163D01*
X986496Y356832D01*
Y356166D01*
X987163Y355499D01*
X988496D01*
X989162Y354833D01*
Y354166D01*
X988496Y353500D01*
X987163D01*
X986496Y354166D01*
X976500Y350332D02*
X977166Y350999D01*
X978499D01*
X979166Y350332D01*
Y349666D01*
X978499Y348999D01*
X977833D01*
X978499D01*
X979166Y348333D01*
Y347666D01*
X978499Y347000D01*
X977166D01*
X976500Y347666D01*
X980499Y350999D02*
Y348333D01*
X981832Y347000D01*
X983165Y348333D01*
Y350999D01*
X984497Y350332D02*
X985164Y350999D01*
X986497D01*
X987163Y350332D01*
Y349666D01*
X986497Y348999D01*
X985830D01*
X986497D01*
X987163Y348333D01*
Y347666D01*
X986497Y347000D01*
X985164D01*
X984497Y347666D01*
X975000Y284332D02*
X975667Y284999D01*
X976999D01*
X977666Y284332D01*
Y281666D01*
X976999Y281000D01*
X975667D01*
X975000Y281666D01*
Y284332D01*
X978999Y284999D02*
Y282333D01*
X980332Y281000D01*
X981664Y282333D01*
Y284999D01*
X970500Y325499D02*
X973166D01*
X971833Y326832D02*
Y324166D01*
X974499Y326832D02*
X975165Y327499D01*
X976498D01*
X977164Y326832D01*
Y326166D01*
X976498Y325499D01*
X975832D01*
X976498D01*
X977164Y324833D01*
Y324166D01*
X976498Y323500D01*
X975165D01*
X974499Y324166D01*
X978497Y327499D02*
Y324833D01*
X979830Y323500D01*
X981163Y324833D01*
Y327499D01*
X982496Y326832D02*
X983163Y327499D01*
X984496D01*
X985162Y326832D01*
Y326166D01*
X984496Y325499D01*
X983829D01*
X984496D01*
X985162Y324833D01*
Y324166D01*
X984496Y323500D01*
X983163D01*
X982496Y324166D01*
X972500Y311499D02*
X975166D01*
X973833Y312832D02*
Y310166D01*
X979165Y313499D02*
X976499D01*
Y311499D01*
X977832Y312166D01*
X978498D01*
X979165Y311499D01*
Y310166D01*
X978498Y309500D01*
X977165D01*
X976499Y310166D01*
X980497Y313499D02*
Y310833D01*
X981830Y309500D01*
X983163Y310833D01*
Y313499D01*
X971500Y299499D02*
Y296833D01*
X972833Y295500D01*
X974166Y296833D01*
Y299499D01*
X975499D02*
Y296166D01*
X976165Y295500D01*
X977498D01*
X978164Y296166D01*
Y299499D01*
X982163Y298832D02*
X981497Y299499D01*
X980164D01*
X979497Y298832D01*
Y298166D01*
X980164Y297499D01*
X981497D01*
X982163Y296833D01*
Y296166D01*
X981497Y295500D01*
X980164D01*
X979497Y296166D01*
X983496Y299499D02*
Y295500D01*
X985495D01*
X986162Y296166D01*
Y296833D01*
X985495Y297499D01*
X983496D01*
X985495D01*
X986162Y298166D01*
Y298832D01*
X985495Y299499D01*
X983496D01*
X832666Y377832D02*
X831999Y378499D01*
X830667D01*
X830000Y377832D01*
Y377166D01*
X830667Y376499D01*
X831999D01*
X832666Y375833D01*
Y375166D01*
X831999Y374500D01*
X830667D01*
X830000Y375166D01*
X833999Y374500D02*
X835332D01*
X834665D01*
Y378499D01*
X833999Y377832D01*
X853200Y398199D02*
X855866Y394200D01*
Y398199D02*
X853200Y394200D01*
X859865D02*
X857199D01*
X859865Y396866D01*
Y397532D01*
X859198Y398199D01*
X857865D01*
X857199Y397532D01*
X846500Y220999D02*
X849166Y217000D01*
Y220999D02*
X846500Y217000D01*
X850499D02*
X851832D01*
X851165D01*
Y220999D01*
X850499Y220332D01*
X938000Y214499D02*
Y211166D01*
X938667Y210500D01*
X939999D01*
X940666Y211166D01*
Y214499D01*
X944664Y213832D02*
X943998Y214499D01*
X942665D01*
X941999Y213832D01*
Y213166D01*
X942665Y212499D01*
X943998D01*
X944664Y211833D01*
Y211166D01*
X943998Y210500D01*
X942665D01*
X941999Y211166D01*
X945997Y214499D02*
Y210500D01*
X947997D01*
X948663Y211166D01*
Y211833D01*
X947997Y212499D01*
X945997D01*
X947997D01*
X948663Y213166D01*
Y213832D01*
X947997Y214499D01*
X945997D01*
X949996Y210500D02*
X951329D01*
X950663D01*
Y214499D01*
X949996Y213832D01*
X918500Y266499D02*
Y263166D01*
X919166Y262500D01*
X920499D01*
X921166Y263166D01*
Y266499D01*
X925165D02*
X923832Y265832D01*
X922499Y264499D01*
Y263166D01*
X923165Y262500D01*
X924498D01*
X925165Y263166D01*
Y263833D01*
X924498Y264499D01*
X922499D01*
X836000Y442499D02*
Y439166D01*
X836666Y438500D01*
X837999D01*
X838666Y439166D01*
Y442499D01*
X842665D02*
X839999D01*
Y440499D01*
X841332Y441166D01*
X841998D01*
X842665Y440499D01*
Y439166D01*
X841998Y438500D01*
X840665D01*
X839999Y439166D01*
X790500Y404999D02*
Y401666D01*
X791166Y401000D01*
X792499D01*
X793166Y401666D01*
Y404999D01*
X796498Y401000D02*
Y404999D01*
X794499Y402999D01*
X797164D01*
X882000Y416999D02*
Y413666D01*
X882666Y413000D01*
X883999D01*
X884666Y413666D01*
Y416999D01*
X885999Y416332D02*
X886665Y416999D01*
X887998D01*
X888665Y416332D01*
Y415666D01*
X887998Y414999D01*
X887332D01*
X887998D01*
X888665Y414333D01*
Y413666D01*
X887998Y413000D01*
X886665D01*
X885999Y413666D01*
X784500Y337499D02*
Y334166D01*
X785166Y333500D01*
X786499D01*
X787166Y334166D01*
Y337499D01*
X791164Y333500D02*
X788499D01*
X791164Y336166D01*
Y336832D01*
X790498Y337499D01*
X789165D01*
X788499Y336832D01*
X889000Y312499D02*
Y309166D01*
X889666Y308500D01*
X890999D01*
X891666Y309166D01*
Y312499D01*
X892999Y308500D02*
X894332D01*
X893665D01*
Y312499D01*
X892999Y311832D01*
X963000Y291999D02*
X965666D01*
X964333D01*
Y288000D01*
X966999D02*
Y291999D01*
X968998D01*
X969664Y291332D01*
Y289999D01*
X968998Y289333D01*
X966999D01*
X972997Y288000D02*
Y291999D01*
X970997Y289999D01*
X973663D01*
X963000Y333999D02*
X965666D01*
X964333D01*
Y330000D01*
X966999D02*
Y333999D01*
X968998D01*
X969664Y333332D01*
Y331999D01*
X968998Y331333D01*
X966999D01*
X970997Y333332D02*
X971664Y333999D01*
X972997D01*
X973663Y333332D01*
Y332666D01*
X972997Y331999D01*
X972330D01*
X972997D01*
X973663Y331333D01*
Y330666D01*
X972997Y330000D01*
X971664D01*
X970997Y330666D01*
X963000Y320499D02*
X965666D01*
X964333D01*
Y316500D01*
X966999D02*
Y320499D01*
X968998D01*
X969664Y319832D01*
Y318499D01*
X968998Y317833D01*
X966999D01*
X973663Y316500D02*
X970997D01*
X973663Y319166D01*
Y319832D01*
X972997Y320499D01*
X971664D01*
X970997Y319832D01*
X963000Y306499D02*
X965666D01*
X964333D01*
Y302500D01*
X966999D02*
Y306499D01*
X968998D01*
X969664Y305832D01*
Y304499D01*
X968998Y303833D01*
X966999D01*
X970997Y302500D02*
X972330D01*
X971664D01*
Y306499D01*
X970997Y305832D01*
X879500Y372000D02*
X875501D01*
Y373999D01*
X876168Y374666D01*
X877501D01*
X878167Y373999D01*
Y372000D01*
Y373333D02*
X879500Y374666D01*
X876168Y375999D02*
X875501Y376665D01*
Y377998D01*
X876168Y378664D01*
X876834D01*
X877501Y377998D01*
X878167Y378664D01*
X878833D01*
X879500Y377998D01*
Y376665D01*
X878833Y375999D01*
X878167D01*
X877501Y376665D01*
X876834Y375999D01*
X876168D01*
X877501Y376665D02*
Y377998D01*
X828500Y363500D02*
X824501D01*
Y365499D01*
X825168Y366166D01*
X826501D01*
X827167Y365499D01*
Y363500D01*
Y364833D02*
X828500Y366166D01*
X824501Y367499D02*
Y370164D01*
X825168D01*
X827833Y367499D01*
X828500D01*
X960000Y304500D02*
X956001D01*
Y306499D01*
X956668Y307166D01*
X958001D01*
X958667Y306499D01*
Y304500D01*
Y305833D02*
X960000Y307166D01*
X956001Y311164D02*
X956668Y309832D01*
X958001Y308499D01*
X959334D01*
X960000Y309165D01*
Y310498D01*
X959334Y311164D01*
X958667D01*
X958001Y310498D01*
Y308499D01*
X811500Y375500D02*
X807501D01*
Y377499D01*
X808168Y378166D01*
X809501D01*
X810167Y377499D01*
Y375500D01*
Y376833D02*
X811500Y378166D01*
X807501Y382165D02*
Y379499D01*
X809501D01*
X808834Y380832D01*
Y381498D01*
X809501Y382165D01*
X810834D01*
X811500Y381498D01*
Y380165D01*
X810834Y379499D01*
X907500Y425000D02*
X903501D01*
Y426999D01*
X904168Y427666D01*
X905501D01*
X906167Y426999D01*
Y425000D01*
Y426333D02*
X907500Y427666D01*
Y430998D02*
X903501D01*
X905501Y428999D01*
Y431665D01*
X801000Y233500D02*
Y237499D01*
X802999D01*
X803666Y236832D01*
Y235499D01*
X802999Y234833D01*
X801000D01*
X802333D02*
X803666Y233500D01*
X804999Y236832D02*
X805665Y237499D01*
X806998D01*
X807664Y236832D01*
Y236166D01*
X806998Y235499D01*
X806332D01*
X806998D01*
X807664Y234833D01*
Y234166D01*
X806998Y233500D01*
X805665D01*
X804999Y234166D01*
X785000Y234000D02*
Y237999D01*
X786999D01*
X787666Y237332D01*
Y235999D01*
X786999Y235333D01*
X785000D01*
X786333D02*
X787666Y234000D01*
X791665D02*
X788999D01*
X791665Y236666D01*
Y237332D01*
X790998Y237999D01*
X789665D01*
X788999Y237332D01*
X907000Y352000D02*
X903001D01*
Y353999D01*
X903668Y354666D01*
X905001D01*
X905667Y353999D01*
Y352000D01*
Y353333D02*
X907000Y354666D01*
Y355999D02*
Y357332D01*
Y356665D01*
X903001D01*
X903668Y355999D01*
X981000Y417000D02*
Y420999D01*
X982999D01*
X983666Y420332D01*
Y418999D01*
X982999Y418333D01*
X981000D01*
X984999Y417000D02*
X986332D01*
X985665D01*
Y420999D01*
X984999Y420332D01*
X800666Y439499D02*
X799333D01*
X799999D01*
Y436166D01*
X799333Y435500D01*
X798666D01*
X798000Y436166D01*
X803998Y435500D02*
Y439499D01*
X801999Y437499D01*
X804665D01*
X801166Y206499D02*
X799833D01*
X800499D01*
Y203167D01*
X799833Y202500D01*
X799166D01*
X798500Y203167D01*
X802499Y205832D02*
X803165Y206499D01*
X804498D01*
X805165Y205832D01*
Y205166D01*
X804498Y204499D01*
X803832D01*
X804498D01*
X805165Y203833D01*
Y203167D01*
X804498Y202500D01*
X803165D01*
X802499Y203167D01*
X973166Y206499D02*
X971833D01*
X972499D01*
Y203167D01*
X971833Y202500D01*
X971167D01*
X970500Y203167D01*
X977164Y202500D02*
X974499D01*
X977164Y205166D01*
Y205832D01*
X976498Y206499D01*
X975165D01*
X974499Y205832D01*
X973666Y438999D02*
X972333D01*
X972999D01*
Y435666D01*
X972333Y435000D01*
X971667D01*
X971000Y435666D01*
X974999Y435000D02*
X976332D01*
X975665D01*
Y438999D01*
X974999Y438332D01*
X816001Y363500D02*
X820000D01*
Y365499D01*
X819333Y366166D01*
X816668D01*
X816001Y365499D01*
Y363500D01*
X816668Y367499D02*
X816001Y368165D01*
Y369498D01*
X816668Y370164D01*
X817334D01*
X818001Y369498D01*
Y368832D01*
Y369498D01*
X818667Y370164D01*
X819333D01*
X820000Y369498D01*
Y368165D01*
X819333Y367499D01*
X948501Y304000D02*
X952500D01*
Y305999D01*
X951834Y306666D01*
X949168D01*
X948501Y305999D01*
Y304000D01*
X952500Y310665D02*
Y307999D01*
X949834Y310665D01*
X949168D01*
X948501Y309998D01*
Y308665D01*
X949168Y307999D01*
X896500Y304999D02*
Y301000D01*
X898499D01*
X899166Y301666D01*
Y304332D01*
X898499Y304999D01*
X896500D01*
X900499Y301000D02*
X901832D01*
X901165D01*
Y304999D01*
X900499Y304332D01*
X837668Y400166D02*
X837001Y399499D01*
Y398166D01*
X837668Y397500D01*
X840333D01*
X841000Y398166D01*
Y399499D01*
X840333Y400166D01*
X841000Y404165D02*
Y401499D01*
X838334Y404165D01*
X837668D01*
X837001Y403498D01*
Y402165D01*
X837668Y401499D01*
X841000Y405497D02*
Y406830D01*
Y406164D01*
X837001D01*
X837668Y405497D01*
X869668Y374166D02*
X869001Y373499D01*
Y372166D01*
X869668Y371500D01*
X872334D01*
X873000Y372166D01*
Y373499D01*
X872334Y374166D01*
X873000Y375499D02*
Y376832D01*
Y376165D01*
X869001D01*
X869668Y375499D01*
X872334Y378831D02*
X873000Y379497D01*
Y380830D01*
X872334Y381497D01*
X869668D01*
X869001Y380830D01*
Y379497D01*
X869668Y378831D01*
X870334D01*
X871001Y379497D01*
Y381497D01*
X870168Y413666D02*
X869501Y412999D01*
Y411666D01*
X870168Y411000D01*
X872834D01*
X873500Y411666D01*
Y412999D01*
X872834Y413666D01*
X873500Y414999D02*
Y416332D01*
Y415665D01*
X869501D01*
X870168Y414999D01*
X869501Y418331D02*
Y420997D01*
X870168D01*
X872834Y418331D01*
X873500D01*
X920666Y304832D02*
X919999Y305499D01*
X918666D01*
X918000Y304832D01*
Y302166D01*
X918666Y301500D01*
X919999D01*
X920666Y302166D01*
X921999Y301500D02*
X923332D01*
X922665D01*
Y305499D01*
X921999Y304832D01*
X927997Y305499D02*
X926664Y304832D01*
X925331Y303499D01*
Y302166D01*
X925997Y301500D01*
X927330D01*
X927997Y302166D01*
Y302833D01*
X927330Y303499D01*
X925331D01*
X877168Y216666D02*
X876501Y215999D01*
Y214666D01*
X877168Y214000D01*
X879834D01*
X880500Y214666D01*
Y215999D01*
X879834Y216666D01*
X880500Y217999D02*
Y219332D01*
Y218665D01*
X876501D01*
X877168Y217999D01*
X876501Y223997D02*
Y221331D01*
X878501D01*
X877834Y222664D01*
Y223330D01*
X878501Y223997D01*
X879834D01*
X880500Y223330D01*
Y221997D01*
X879834Y221331D01*
X876668Y258166D02*
X876001Y257499D01*
Y256166D01*
X876668Y255500D01*
X879333D01*
X880000Y256166D01*
Y257499D01*
X879333Y258166D01*
X880000Y259499D02*
Y260832D01*
Y260165D01*
X876001D01*
X876668Y259499D01*
X880000Y264830D02*
X876001D01*
X878001Y262831D01*
Y265497D01*
X959668Y382666D02*
X959001Y381999D01*
Y380666D01*
X959668Y380000D01*
X962333D01*
X963000Y380666D01*
Y381999D01*
X962333Y382666D01*
X963000Y383999D02*
Y385332D01*
Y384665D01*
X959001D01*
X959668Y383999D01*
Y387331D02*
X959001Y387997D01*
Y389330D01*
X959668Y389997D01*
X960334D01*
X961001Y389330D01*
Y388664D01*
Y389330D01*
X961667Y389997D01*
X962333D01*
X963000Y389330D01*
Y387997D01*
X962333Y387331D01*
X883168Y426166D02*
X882501Y425499D01*
Y424166D01*
X883168Y423500D01*
X885833D01*
X886500Y424166D01*
Y425499D01*
X885833Y426166D01*
X886500Y427499D02*
Y428832D01*
Y428165D01*
X882501D01*
X883168Y427499D01*
X886500Y433497D02*
Y430831D01*
X883834Y433497D01*
X883168D01*
X882501Y432830D01*
Y431497D01*
X883168Y430831D01*
X876168Y413666D02*
X875501Y412999D01*
Y411666D01*
X876168Y411000D01*
X878833D01*
X879500Y411666D01*
Y412999D01*
X878833Y413666D01*
X879500Y414999D02*
Y416332D01*
Y415665D01*
X875501D01*
X876168Y414999D01*
X879500Y418331D02*
Y419664D01*
Y418997D01*
X875501D01*
X876168Y418331D01*
X912168Y351666D02*
X911501Y350999D01*
Y349666D01*
X912168Y349000D01*
X914834D01*
X915500Y349666D01*
Y350999D01*
X914834Y351666D01*
X915500Y352999D02*
Y354332D01*
Y353665D01*
X911501D01*
X912168Y352999D01*
Y356331D02*
X911501Y356997D01*
Y358330D01*
X912168Y358997D01*
X914834D01*
X915500Y358330D01*
Y356997D01*
X914834Y356331D01*
X912168D01*
X941166Y409332D02*
X940499Y409999D01*
X939167D01*
X938500Y409332D01*
Y406666D01*
X939167Y406000D01*
X940499D01*
X941166Y406666D01*
X942499D02*
X943165Y406000D01*
X944498D01*
X945164Y406666D01*
Y409332D01*
X944498Y409999D01*
X943165D01*
X942499Y409332D01*
Y408666D01*
X943165Y407999D01*
X945164D01*
X900666Y217332D02*
X899999Y217999D01*
X898666D01*
X898000Y217332D01*
Y214666D01*
X898666Y214000D01*
X899999D01*
X900666Y214666D01*
X901999Y217332D02*
X902665Y217999D01*
X903998D01*
X904665Y217332D01*
Y216666D01*
X903998Y215999D01*
X904665Y215333D01*
Y214666D01*
X903998Y214000D01*
X902665D01*
X901999Y214666D01*
Y215333D01*
X902665Y215999D01*
X901999Y216666D01*
Y217332D01*
X902665Y215999D02*
X903998D01*
X904666Y225832D02*
X903999Y226499D01*
X902666D01*
X902000Y225832D01*
Y223166D01*
X902666Y222500D01*
X903999D01*
X904666Y223166D01*
X905999Y226499D02*
X908665D01*
Y225832D01*
X905999Y223166D01*
Y222500D01*
X808668Y342166D02*
X808001Y341499D01*
Y340166D01*
X808668Y339500D01*
X811334D01*
X812000Y340166D01*
Y341499D01*
X811334Y342166D01*
X808001Y346164D02*
X808668Y344832D01*
X810001Y343499D01*
X811334D01*
X812000Y344165D01*
Y345498D01*
X811334Y346164D01*
X810667D01*
X810001Y345498D01*
Y343499D01*
X842166Y236832D02*
X841499Y237499D01*
X840166D01*
X839500Y236832D01*
Y234166D01*
X840166Y233500D01*
X841499D01*
X842166Y234166D01*
X846165Y237499D02*
X843499D01*
Y235499D01*
X844832Y236166D01*
X845498D01*
X846165Y235499D01*
Y234166D01*
X845498Y233500D01*
X844165D01*
X843499Y234166D01*
X874666Y426832D02*
X873999Y427499D01*
X872666D01*
X872000Y426832D01*
Y424166D01*
X872666Y423500D01*
X873999D01*
X874666Y424166D01*
X877998Y423500D02*
Y427499D01*
X875999Y425499D01*
X878664D01*
X875666Y304832D02*
X874999Y305499D01*
X873666D01*
X873000Y304832D01*
Y302166D01*
X873666Y301500D01*
X874999D01*
X875666Y302166D01*
X876999Y304832D02*
X877665Y305499D01*
X878998D01*
X879665Y304832D01*
Y304166D01*
X878998Y303499D01*
X878332D01*
X878998D01*
X879665Y302833D01*
Y302166D01*
X878998Y301500D01*
X877665D01*
X876999Y302166D01*
X903166Y339832D02*
X902499Y340499D01*
X901167D01*
X900500Y339832D01*
Y337166D01*
X901167Y336500D01*
X902499D01*
X903166Y337166D01*
X907164Y336500D02*
X904499D01*
X907164Y339166D01*
Y339832D01*
X906498Y340499D01*
X905165D01*
X904499Y339832D01*
X940666Y333332D02*
X939999Y333999D01*
X938667D01*
X938000Y333332D01*
Y330666D01*
X938667Y330000D01*
X939999D01*
X940666Y330666D01*
X941999Y330000D02*
X943332D01*
X942665D01*
Y333999D01*
X941999Y333332D01*
M02*
