G04*
G04 #@! TF.GenerationSoftware,Altium Limited,Altium Designer,19.1.8 (144)*
G04*
G04 Layer_Color=16711935*
%FSLAX25Y25*%
%MOIN*%
G70*
G01*
G75*
%ADD52C,0.20500*%
%ADD53R,0.06406X0.06406*%
%ADD54C,0.06406*%
%ADD55C,0.14279*%
%ADD56R,0.06799X0.06799*%
%ADD57C,0.06799*%
%ADD58C,0.07887*%
%ADD59R,0.07887X0.07887*%
%ADD60C,0.14580*%
%ADD61C,0.05224*%
D52*
X802000Y437000D02*
D03*
X974000D02*
D03*
Y204500D02*
D03*
X802000D02*
D03*
D53*
X982500Y409988D02*
D03*
D54*
Y399988D02*
D03*
Y389988D02*
D03*
Y379988D02*
D03*
X940000Y251842D02*
D03*
X932126D02*
D03*
X940000Y242000D02*
D03*
X932126D02*
D03*
D55*
X950669Y223220D02*
D03*
Y270622D02*
D03*
D56*
X794000Y360500D02*
D03*
D57*
Y370500D02*
D03*
Y380500D02*
D03*
Y390500D02*
D03*
D58*
X929300Y440950D02*
D03*
X919300D02*
D03*
X909300D02*
D03*
X879300D02*
D03*
X889300D02*
D03*
X899300D02*
D03*
D59*
X869300D02*
D03*
D60*
X945100Y345350D02*
D03*
X945200Y438950D02*
D03*
X853400D02*
D03*
Y345250D02*
D03*
D61*
X978500Y290534D02*
D03*
Y332000D02*
D03*
Y318178D02*
D03*
Y304356D02*
D03*
M02*
