M48
;Layer_Color=9474304
;FILE_FORMAT=2:5
INCH,LZ
;TYPE=PLATED
T1F00S00C0.01200
T2F00S00C0.03150
T3F00S00C0.03543
T4F00S00C0.03937
T5F00S00C0.07874
T6F00S00C0.09843
T7F00S00C0.12500
%
T01
X07855Y02705
X0793705
X0801205
X0808205Y027
Y0280875
X0801205Y0281375
X0793705
X07855
Y029225
X0793705
X0801205
X0808205Y029175
Y0302625
X0801205Y0303125
X0793705
X07855
X0852Y0266
X08575Y02715
X08645
X08715
X0882
Y0275646
X0882273Y0279646
X0887
Y0275646
Y02715
X0878002Y0264998
X0878Y02585
X0852Y02545
Y02405
Y02265
Y0211
X0856Y0207
X086525
X08745
X0878002Y0210502
Y0220223
X09065Y0216
X0911988Y02105
X0923012Y0210512
X09105Y02245
X09055Y0249
X09245Y0268
X09355Y0265
X0934673Y0281646
X0930173
X0925173
X0927173Y0293
Y0297147
X0932173
Y0293
X0936673
Y0297147
X0915Y0291
X091175
X09085
X08995Y0304
X0839Y0243398
X0842913Y0332039
X0835039
X08415Y035
X0849Y0364
X084556Y036744
X08455Y0378
X0839Y0382453
X08455Y03895
Y0404
Y0417
X084556Y042406
X085Y04285
X0864
X0875Y0426
X0871062Y0421438
Y0413868
X0874744Y0406227
Y0400125
X08775Y0381701
X088Y03755
X0883Y0369
X08775Y03665
X0875Y0364
X0866
X08575
X0871Y0369
Y0377449
X08775Y0356333
X088Y0354
X08855
X08915
X0875Y035125
X0876Y03405
Y0336
Y0332
X08835
Y0336
Y03405
X08685
Y0336
X0909Y0346
X09125
X09185
X0922
X09255
X0929
X09305Y0341
X0927
X09235
Y03355
X0927
X09305
Y03305
X0927
X09235
X0928Y03645
X0917Y0364898
X0913Y0360898
X0909Y0364701
X0901
X0905Y0360701
X0910858Y0388
X0912642Y0405858
X09115Y04215
X0909Y04195
X0903Y0434
X0887Y0431102
Y0425
Y0418968
X089525Y0405858
X0891984Y0396016
X0892Y0392
X09275Y0412
X0933602
X0832161Y0412339
X0826Y0406177
X0819839Y0412339
X0826Y04185
X08185Y0362
X0814Y0357
X0813898Y0350898
X0808205Y03135
X0801205Y0314
X0793705
X07855
X095Y0328
X0957Y03285
X095825Y037025
Y0377
Y038275
X0958Y0389
Y039525
Y04015
X096425
X09705
T02
X09785Y0290534
Y0304356
X0794Y03605
Y03705
Y03805
Y03905
X09785Y0332
Y0318178
T03
X09825Y0379988
Y0389988
Y0399988
Y0409988
T04
X094Y0242
Y0251842
X0932126
Y0242
X09293Y044095
X09193
X09093
X08993
X08893
X08793
X08693
T05
X08534Y034525
Y043895
X09452
X09451Y034535
T06
X0950669Y022322
Y0270622
T07
X0974Y02045
X0802
Y0437
X0974
M30
